<?xml version="1.0" encoding="utf-8"?>
<!-- Generator: Adobe Illustrator 27.1.1, SVG Export Plug-In . SVG Version: 6.00 Build 0)  -->
<svg version="1.1" id="Camada_1" xmlns="http://www.w3.org/2000/svg" xmlns:xlink="http://www.w3.org/1999/xlink" x="0px" y="0px"
	 viewBox="0 0 1018.1 516.8" style="enable-background:new 0 0 1018.1 516.8;" xml:space="preserve">
<style type="text/css">
	.st0{enable-background:new    ;}
	.st1{fill:#F7F7E8;}
</style>
<g>
	<g>
		<g class="st0">
			<path class="st1" d="M399.1,206.1c6.9,0,13.3,1.1,19.1,3.3c5.8,2.2,10.8,5.5,15.1,9.7c4.2,4.3,7.5,9.5,9.9,15.7
				s3.5,13.3,3.5,21.2c0,2-0.1,3.7-0.3,5c-0.2,1.3-0.5,2.4-1,3.1c-0.5,0.8-1.1,1.3-1.9,1.6c-0.8,0.3-1.8,0.5-3,0.5l-68-0.1
				c0.8,11.3,3.8,19.6,9.1,24.9c5.3,5.3,12.3,7.9,21,8c4.3,0,8-0.5,11.1-1.5s5.8-2.1,8.2-3.3c2.3-1.2,4.4-2.3,6.1-3.3
				c1.8-1,3.5-1.5,5.1-1.5c1.1,0,2,0.2,2.8,0.6s1.5,1,2,1.8l7.7,9.7c-2.9,3.4-6.2,6.3-9.9,8.6c-3.6,2.3-7.5,4.2-11.4,5.6
				c-4,1.4-8,2.4-12.1,2.9c-4.1,0.6-8.1,0.9-12,0.8c-7.7,0-14.8-1.3-21.3-3.8c-6.6-2.5-12.3-6.3-17.1-11.3
				c-4.9-5-8.7-11.1-11.5-18.5c-2.8-7.3-4.2-15.8-4.2-25.5c0-7.5,1.2-14.6,3.7-21.2c2.4-6.6,5.9-12.4,10.5-17.3
				c4.5-4.9,10.1-8.8,16.6-11.6C383.5,207.5,390.9,206.1,399.1,206.1z M399.6,225.1c-7.7,0-13.8,2.2-18.1,6.5
				c-4.4,4.4-7.2,10.5-8.4,18.5l49.8,0.1c0-3.4-0.5-6.7-1.4-9.7s-2.4-5.7-4.3-8s-4.4-4.1-7.3-5.4C407,225.7,403.6,225.1,399.6,225.1
				z"/>
		</g>
		<g class="st0">
			<path class="st1" d="M591.9,163v23.7h-46.7L545.1,318h-28.9l0.1-131.4h-46.9v-23.7L591.9,163z"/>
		</g>
		<g>
			<g class="st0">
				<path class="st1" d="M397,405.6h-6.6l-36.7-55.9l-0.1,55.8H347l0.1-66.4h6.6l36.7,55.8l0.1-55.7h6.6L397,405.6z"/>
				<path class="st1" d="M421.7,403.1c-3.9-2.2-7-5.3-9.2-9.3s-3.4-8.7-3.4-14.1s1.1-10.1,3.4-14.1s5.4-7.1,9.3-9.3
					c3.9-2.2,8.3-3.3,13.2-3.3c4.9,0,9.3,1.1,13.2,3.3c4,2.2,7.1,5.3,9.3,9.3c2.2,4,3.4,8.7,3.4,14.1c0,5.3-1.2,10-3.4,14
					c-2.3,4-5.4,7.2-9.4,9.3c-4,2.2-8.4,3.3-13.3,3.3C429.9,406.4,425.6,405.3,421.7,403.1z M444.3,398.3c2.9-1.5,5.3-3.9,7.1-7
					c1.8-3.1,2.7-7,2.7-11.5c0-4.6-0.9-8.4-2.6-11.5c-1.8-3.1-4.1-5.5-7-7c-2.9-1.6-6.1-2.3-9.5-2.3s-6.6,0.8-9.5,2.3s-5.2,3.9-7,7
					c-1.7,3.1-2.6,7-2.6,11.5c0,4.6,0.9,8.4,2.6,11.5s4,5.5,6.9,7c2.9,1.6,6,2.3,9.4,2.3C438.2,400.6,441.4,399.8,444.3,398.3z"/>
				<path class="st1" d="M491.5,399.2l17.5-45.4h7l-20.8,51.8h-7.5L467,353.8h7.1L491.5,399.2z"/>
				<path class="st1" d="M525.2,365.7c2.1-4,5.1-7.1,8.8-9.3c3.8-2.2,8-3.3,12.8-3.3c4.9,0,9.2,1.1,12.8,3.4s6.1,5.2,7.7,8.7v-11.4
					h6.6l-0.1,51.8h-6.6v-11.5c-1.6,3.5-4.3,6.5-7.8,8.8c-3.6,2.3-7.8,3.5-12.8,3.5c-4.7,0-8.9-1.1-12.7-3.3
					c-3.8-2.2-6.7-5.4-8.8-9.4c-2.1-4.1-3.2-8.7-3.2-14.1C522,374.4,523.1,369.7,525.2,365.7z M564.7,368.8c-1.7-3.2-4-5.6-7-7.3
					c-2.9-1.7-6.2-2.6-9.7-2.6c-3.7,0-7,0.8-9.9,2.5c-2.9,1.6-5.2,4-6.9,7.2c-1.7,3.1-2.5,6.8-2.5,11.2c0,4.2,0.8,8,2.5,11.2
					s4,5.6,6.9,7.3c2.9,1.7,6.2,2.5,9.9,2.5c3.5,0,6.8-0.8,9.7-2.6c2.9-1.7,5.3-4.1,7-7.3c1.7-3.2,2.6-6.8,2.6-11
					S566.4,372,564.7,368.8z"/>
				<path class="st1" d="M619.4,399.9h33.9v5.9h-41.7v-5.3l33.5-55.1h-32.8v-5.9h40.6v5.3L619.4,399.9z"/>
				<path class="st1" d="M711.7,382.6h-43c0.2,3.9,1.1,7.3,2.8,10.1c1.7,2.8,3.9,4.9,6.7,6.3s5.8,2.1,9.1,2.1c4.3,0,7.9-1,10.9-3.1
					c2.9-2.1,4.9-4.9,5.8-8.4h7c-1.3,5.1-4,9.2-8.1,12.4c-4.1,3.2-9.4,4.8-15.6,4.8c-4.9,0-9.2-1.1-13.1-3.3
					c-3.9-2.2-6.9-5.3-9.1-9.3c-2.2-4-3.3-8.7-3.3-14.1s1.1-10.1,3.2-14.1c2.2-4,5.2-7.1,9-9.3c3.9-2.1,8.3-3.2,13.2-3.2
					s9.3,1.1,13,3.2c3.7,2.2,6.5,5.1,8.5,8.7s3,7.7,3,12.1C711.9,379.6,711.8,381.4,711.7,382.6z M702.8,367.3
					c-1.6-2.7-3.8-4.8-6.6-6.2c-2.8-1.4-5.8-2.1-9.1-2.1c-4.9,0-9.1,1.6-12.6,4.7c-3.5,3.2-5.4,7.6-5.8,13.4h36.5
					C705.2,373.3,704.4,370,702.8,367.3z"/>
				<path class="st1" d="M730.7,335.7l-0.1,70.3H724l0.1-70.3H730.7z"/>
				<path class="st1" d="M745.9,365.9c2.1-4,5.1-7.1,8.8-9.3c3.8-2.2,8-3.3,12.8-3.3c4.9,0,9.2,1.1,12.8,3.4s6.1,5.2,7.7,8.7V354
					h6.6l-0.1,51.8h-6.6v-11.5c-1.6,3.5-4.3,6.5-7.8,8.8c-3.6,2.3-7.8,3.5-12.8,3.5c-4.7,0-8.9-1.1-12.7-3.3
					c-3.8-2.2-6.7-5.4-8.8-9.4c-2.1-4.1-3.2-8.7-3.2-14.1S743.8,369.9,745.9,365.9z M785.5,369.1c-1.7-3.2-4-5.6-7-7.3
					c-2.9-1.7-6.2-2.6-9.7-2.6c-3.7,0-7,0.8-9.9,2.5c-2.9,1.6-5.2,4-6.9,7.2c-1.7,3.1-2.5,6.8-2.5,11.2c0,4.2,0.8,8,2.5,11.2
					s4,5.6,6.9,7.3c2.9,1.7,6.2,2.5,9.9,2.5c3.5,0,6.8-0.8,9.7-2.6c2.9-1.7,5.3-4.1,7-7.3s2.6-6.8,2.6-11
					C788,375.9,787.2,372.2,785.5,369.1z M770.4,340.7l-12.7,8v-5.4l12.7-7.8l12.7,7.8v5.4L770.4,340.7z"/>
				<path class="st1" d="M849.4,359c3.9,3.8,5.9,9.4,5.9,16.7v30.4h-6.6v-29.6c0-5.6-1.4-9.9-4.2-12.9s-6.7-4.5-11.5-4.5
					c-5,0-9,1.6-12,4.7s-4.5,7.8-4.5,14v28.3h-6.6l0.1-51.8h6.6v8.8c1.6-3.2,4-5.6,7.1-7.3c3.1-1.7,6.6-2.5,10.5-2.5
					C840.4,353.3,845.4,355.2,849.4,359z"/>
				<path class="st1" d="M870.1,366.1c2.2-4,5.1-7.1,8.9-9.3c3.8-2.2,8-3.3,12.8-3.3c4.6,0,8.7,1.1,12.3,3.3
					c3.7,2.2,6.4,5.1,8.1,8.6v-29.6h6.6l-0.1,70.3h-6.6v-11.6c-1.6,3.6-4.2,6.6-7.8,8.9s-7.9,3.5-12.7,3.5c-4.7,0-9-1.1-12.8-3.3
					c-3.8-2.2-6.7-5.4-8.8-9.4c-2.1-4.1-3.2-8.7-3.2-14.1S868,370.1,870.1,366.1z M909.6,369.2c-1.7-3.2-4-5.6-7-7.3
					c-2.9-1.7-6.2-2.6-9.7-2.6c-3.7,0-7,0.8-9.9,2.5c-2.9,1.6-5.2,4-6.9,7.2c-1.7,3.1-2.5,6.8-2.5,11.2c0,4.2,0.8,8,2.5,11.2
					s4,5.6,6.9,7.3c2.9,1.7,6.2,2.5,9.9,2.5c3.5,0,6.8-0.8,9.7-2.6c2.9-1.7,5.3-4.1,7-7.3c1.7-3.2,2.6-6.8,2.6-11
					C912.2,376,911.3,372.4,909.6,369.2z"/>
				<path class="st1" d="M934,343.1c-0.9-1-1.4-2.1-1.4-3.5s0.5-2.5,1.4-3.5c1-0.9,2.1-1.4,3.4-1.4c1.3,0,2.5,0.5,3.4,1.4
					s1.4,2.1,1.4,3.5s-0.5,2.6-1.4,3.5s-2.1,1.4-3.4,1.4S934.9,344.1,934,343.1z M940.7,354.3l-0.1,51.8H934l0.1-51.8H940.7z"/>
				<path class="st1" d="M955.9,366.1c2.1-4,5.1-7.1,8.8-9.3c3.8-2.2,8-3.3,12.8-3.3c4.9,0,9.2,1.1,12.8,3.4s6.1,5.2,7.7,8.7v-11.4
					h6.6l-0.1,51.8h-6.6v-11.5c-1.6,3.5-4.3,6.5-7.8,8.8c-3.6,2.3-7.8,3.5-12.8,3.5c-4.7,0-8.9-1.1-12.7-3.3
					c-3.8-2.2-6.7-5.4-8.8-9.4c-2.1-4.1-3.2-8.7-3.2-14.1S953.8,370.2,955.9,366.1z M995.5,369.3c-1.7-3.2-4-5.6-7-7.3
					c-2.9-1.7-6.2-2.6-9.7-2.6c-3.7,0-7,0.8-9.9,2.5c-2.9,1.6-5.2,4-6.9,7.2c-1.7,3.1-2.5,6.8-2.5,11.2c0,4.2,0.8,8,2.5,11.2
					s4,5.6,6.9,7.3c2.9,1.7,6.2,2.5,9.9,2.5c3.5,0,6.8-0.8,9.7-2.6c2.9-1.7,5.3-4.1,7-7.3c1.7-3.2,2.6-6.8,2.6-11
					C998,376.1,997.2,372.4,995.5,369.3z"/>
			</g>
			<g class="st0">
				<path class="st1" d="M730.7,318.2h-22.3c-2.5,0-4.6-0.6-6.2-1.9c-1.6-1.3-2.8-2.8-3.5-4.7L687.2,280l-64.2-0.1l-11.6,31.6
					c-0.6,1.6-1.7,3.1-3.4,4.5s-3.7,2-6.2,2h-22.4l61.1-155H670L730.7,318.2z M630.4,259.5l49.4,0.1L661,208c-0.9-2.3-1.8-5-2.8-8.1
					s-2-6.5-3-10.1c-1,3.6-2,7-3,10.2c-1,3.1-1.9,5.9-2.8,8.3L630.4,259.5z"/>
			</g>
		</g>
	</g>
	<g>
		<path class="st1" d="M61.4,374.8l9.6,14.5c0,0-21.6,83-17.3,110.7l-26-40.8C27.7,459.2,47.6,394.3,61.4,374.8L61.4,374.8z"/>
		<path class="st1" d="M70.7,363.3c0,0-1.1-17.2-1.2-28.5c0-1.1-0.1-2.2-0.2-3.3c-1.3-13-1.2-42.4,1.4-46.3
			c2.4-3.6,19.7,39.4,26.5,32.5c-25.2-46-50.4-92.1-75.6-138.1l0,0c-8.3,10.1-10.5,23.8-6,36L70.7,363.3L70.7,363.3z"/>
		<path class="st1" d="M63.4,149.1L63.4,149.1l66.8,122.3c-4,4.1-15.1-10.7-21.2-24.2c-7.3,9.3-7.4,43.1-6.3,59.3
			C88.5,262,74.3,217.5,60.2,173C57.5,164.9,58.7,156.1,63.4,149.1L63.4,149.1z"/>
		<path class="st1" d="M114.1,118L114.1,118l49.6,110.1c-4.3,4.2-17.9-19.2-21.6-22.8c-7.6,8.3-9.9,39.4-9.1,56.7
			c-9.6-41.1-19.3-82.1-29-123.2C102.2,130.4,106.3,121.7,114.1,118L114.1,118z"/>
		<path class="st1" d="M164.9,111.4l2.5-0.6l32.8,83c-3.8,2.9-12.4-15.6-16.1-24.2c-8.3,6.9-14.8,35.7-15.3,50.3
			c-4.6-31.2-9.2-62.5-13.8-93.7C154,119.4,158.3,113,164.9,111.4L164.9,111.4z"/>
		<path class="st1" d="M204,96.4l1.4-0.6l32.7,65.9c-3.5,2.9-13.3-15.5-17-21.7c-9.9,6.2-13.5,38.2-15.5,49.8
			c-3.5-25.5-7-51-10.6-76.5C194,106.3,197.6,99.5,204,96.4L204,96.4z"/>
		<path class="st1" d="M255,86.8l5.8-0.4l13.1,47.4c-4.9,2.5-8.6-11-9.8-13.5c-8.6,4.9-14.8,23.4-19.3,33.8
			c0.6-19.4,1.2-38.8,1.8-58.2C246.6,91.1,250.3,87.2,255,86.8L255,86.8z"/>
		<path class="st1" d="M289.7,77.8l5.2-2.3l12.2,39.7c-3.5-4.8-4.8-6-8.5-10.9c-8.6,6.2-16,14.8-19.6,24.9
			c0.9-13.3,1.8-26.6,2.7-39.9C281.9,84.2,285,79.8,289.7,77.8L289.7,77.8z"/>
		<path class="st1" d="M319.7,68.8l4.5-1.6l11.4,30.9c-3.8-3.6-7.5-6.1-12.4-9.8c-6.2,4.9-9.8,16-12.7,25.3
			c0.3-11.1,0.6-22.3,0.9-33.4C311.6,75.1,314.9,70.5,319.7,68.8L319.7,68.8z"/>
		<path class="st1" d="M345.8,56.7l1.8-1l11,26.5c0,0-9.5-8.8-9.5-8.7c-6.2,2.5-9.5,20.8-9.6,20.9c-0.3-8.4-0.6-16.7-0.9-25.1
			C338.3,64,341.2,59.1,345.8,56.7L345.8,56.7z"/>
		<path class="st1" d="M365.3,47.1l2.3-1.2l9.7,20.9l-8.4-4.4l-6.3,16.1l-3.1-19.6C358.6,54.1,361,49.3,365.3,47.1L365.3,47.1z"/>
		<path class="st1" d="M381.8,34.7l0.5-0.6l10,12.4l-11.6,12.2L379,44.3C378.6,40.9,379.6,37.4,381.8,34.7L381.8,34.7z"/>
		<polygon class="st1" points="391.4,31.2 395.5,39.4 403.4,16.9 		"/>
		<polygon class="st1" points="406.8,29.3 399.8,46.6 406.1,47.6 		"/>
		<polygon class="st1" points="396.5,53.6 388.6,63.2 400.9,67.3 402.4,57.8 		"/>
		<path class="st1" d="M379.9,70.5l6.3,5.6c-1.1,3.2-4.5,5.5-6.4,6.4c-2.3,1-5.3,2.1-8.5,1.8c5.1,0.8,10.2,1.6,15.4,2.4
			c3.4,0.5,6.6-1.3,8-4.4l2.9-6.8L379.9,70.5L379.9,70.5z"/>
		<path class="st1" d="M363.9,89.6l8.4,5.7c-2.1,3.2-9.2,4.9-11.7,5.3c-3.7,0.7-7.5,1.1-11.4,0.7c7.5,1.5,15.1,2.9,22.6,4.4
			c4,0.8,8-1.2,9.7-4.9l3.3-6.9L363.9,89.6L363.9,89.6z"/>
		<path class="st1" d="M336.6,108.7l9,7.9c-4.1,2-9.9,3.8-13.9,4.3c-5,0.5-9.6,0-15.2-0.1c12.5,2.7,25,5.4,37.4,8.1
			c4.2,0.9,8.3-1.6,9.6-5.7l1.8-6.1L336.6,108.7L336.6,108.7z"/>
		<path class="st1" d="M306.4,125.9l8.2,8.8c-3.1,2.2-7.6,5.4-11.7,6.4c-4.8,1.2-10.7,1.1-16.3,1.1c14.4,4.2,28.8,8.3,43.3,12.5
			c5.2,1.2,10.5-2,11.8-7.2l1.2-6.2L306.4,125.9L306.4,125.9z"/>
		<path class="st1" d="M274.8,148.1C274.8,148.1,274.8,148.2,274.8,148.1c-0.4,1.9,0.1,3.9,1.4,5.3c3.7,3.9,8.4,7.8,11.2,11.7
			c-5.8,1.6-11.6,1.7-17.6,1.6c-6.7-0.1-13.9-1.1-20.5-2.3c19.8,7.6,39.5,15.2,59.3,22.8c3.6,1.4,7.7,0,9.7-3.2l7.6-10.8
			L274.8,148.1L274.8,148.1z"/>
		<path class="st1" d="M240.7,173.9l-2,1.4c-0.8,0.9,3.2,3.7,5.1,4.9c0.4,0.2,0.7,0.4,1.1,0.6l27.1,14.6c-8.9,2.3-19.2,6.4-29.9,6.4
			c-10.4,0.2-20.3-1.1-31.4-2.4c23.8,7.7,47.5,15.3,71.3,23c4,1.3,8.5-0.2,10.8-3.8l8.6-12.6L240.7,173.9L240.7,173.9z"/>
		<path class="st1" d="M204.7,210.4l-1.1,0.8c-1.2,0.9-1.1,2.7,0.2,3.5l27.7,16c-9.9,3.1-17.4,5.8-26.7,6.4
			c-10,0.7-18.1-1.1-30.9-2.3c28.8,9.1,57.6,18.3,86.4,27.4c4.2,1.3,8.9-0.3,11.2-4.1l7.4-11.2L204.7,210.4L204.7,210.4z"/>
		<path class="st1" d="M168.4,242.6l-0.7,0.7c-1.5,1.5-1.1,4,0.9,4.9l35.3,16.2c-9.7,3.8-17.5,6-26.8,7c-11.3,1.2-21.3,1.1-34.7-0.4
			c38.1,8.3,76.1,16.6,114.2,25c4.1,0.9,8.4-0.8,10.8-4.4l3.2-4.9L168.4,242.6L168.4,242.6z"/>
		<path class="st1" d="M137.2,276.5l-1,1.6c-1,1.7-0.2,3.9,1.7,4.5l44.5,15.3c-13,5.4-20,7.3-32,9.6c-12.8,2.5-22.4,3.2-41.3,3.5
			c46,6.5,92,13,138,19.5c5.4,0.8,10.6-1.8,13.3-6.5l3-5.1L137.2,276.5L137.2,276.5z"/>
		<path class="st1" d="M102.5,326.2c-0.7,4.6,2.6,8.8,7.2,9.2l52.5,6.3c-11.2,10-15.8,11.6-29,18.7c-0.6,0.3-1.2,0.6-1.9,0.9
			c-14.6,6-32.6,9.3-52.8,14.1c52.6-4.3,105.2-8.5,157.8-12.8c9.2-0.8,17.3-6.6,20.9-15.1l1-2.3L102.5,326.2L102.5,326.2z"/>
	</g>
</g>
</svg>
