<?xml version="1.0" encoding="utf-8"?>
<!-- Generator: Adobe Illustrator 27.1.1, SVG Export Plug-In . SVG Version: 6.00 Build 0)  -->
<svg version="1.1" id="Ñëîé_1" xmlns="http://www.w3.org/2000/svg" xmlns:xlink="http://www.w3.org/1999/xlink" x="0px" y="0px"
	 viewBox="0 0 600 231.3" style="enable-background:new 0 0 600 231.3;" xml:space="preserve">
<style type="text/css">
	.st0{opacity:5.000000e-02;}
</style>
<g class="st0">
	<polygon points="511.8,220.6 513.2,220.6 513.2,147.4 516.7,147.4 516.7,146.4 520.1,146.4 520.1,147.4 536.7,147.4 536.7,153.1 
		540.3,153.1 540.3,220.6 543,220.6 543,229.2 540.3,229.2 540.3,229.5 536.7,229.5 516.8,229.5 513.2,229.5 513.2,229.2 
		511.8,229.2 	"/>
	<polygon points="519.6,155.7 519.6,154.3 492,154.3 492,155.7 488.7,155.7 488.7,160.4 488.7,161.6 488.7,162.4 488.7,163.2 
		488.7,165.1 488.7,165.7 488.7,167.6 488.7,168.4 488.7,170.2 488.7,170.9 488.7,172.8 488.7,173.5 488.7,175.4 488.7,175.8 
		488.7,176.1 488.7,176.7 488.7,177.9 488.7,178.7 488.7,180.6 488.7,181.2 488.7,183.2 488.7,183.9 488.7,185.7 488.7,186.5 
		488.7,188.4 488.7,189 488.7,190.1 488.7,190.9 488.7,191.7 488.7,193.5 488.7,194.2 488.7,196.1 488.7,196.8 488.7,198.7 
		488.7,199.3 488.7,201.2 488.7,202 488.7,203.9 488.7,204.2 488.7,204.5 488.7,205.2 488.7,206.5 488.7,207.1 488.7,209 
		488.7,209.8 488.7,211.7 488.7,212.3 488.7,214.2 488.7,214.9 488.7,216.8 488.7,217.5 488.7,218.5 488.7,219.4 488.7,220.1 
		488.7,222 488.7,222.6 488.7,224.5 488.7,225.3 488.7,227 524.2,227 524.2,225.3 524.2,224.5 524.2,222.6 524.2,222 524.2,220.1 
		524.2,219.4 524.2,218.5 524.2,217.5 524.2,216.8 524.2,214.9 524.2,214.2 524.2,212.3 524.2,211.7 524.2,209.8 524.2,209 
		524.2,207.1 524.2,206.5 524.2,205.2 524.2,204.5 524.2,204.2 524.2,203.9 524.2,202 524.2,201.2 524.2,199.3 524.2,198.7 
		524.2,196.8 524.2,196.1 524.2,194.2 524.2,193.5 524.2,191.7 524.2,190.9 524.2,190.1 524.2,189 524.2,188.4 524.2,186.5 
		524.2,185.7 524.2,183.9 524.2,183.2 524.2,181.2 524.2,180.6 524.2,178.7 524.2,177.9 524.2,176.7 524.2,176.1 524.2,175.8 
		524.2,175.4 524.2,173.5 524.2,172.8 524.2,170.9 524.2,170.2 524.2,168.4 524.2,167.6 524.2,165.7 524.2,165.1 524.2,163.2 
		524.2,162.4 524.2,161.6 524.2,160.4 524.2,155.7 	"/>
	<rect x="371.7" y="109.3" width="34.7" height="116.6"/>
	<polygon points="212,140.4 212,143.4 208.1,143.4 208.1,226.9 212,226.9 234.1,226.9 238.2,226.9 238.2,140.4 	"/>
	<polygon points="18.5,148.9 18.5,148.9 18.4,148.9 18.4,148.9 18,148.9 18,148.9 17.6,148.9 17.6,148.9 17.3,148.9 17.3,148.9 
		17.1,148.9 17.1,148.9 15.8,148.9 15.7,148.9 14.4,148.9 14.4,148.9 14.3,148.9 14.3,148.9 13.8,148.9 13.8,148.9 13.8,147.9 
		12.6,147.9 12.6,147.9 12.9,147.9 12.9,147.7 12.3,147.7 12.3,147.9 12.5,147.9 12.5,147.9 3.6,147.9 3.5,147.9 3.5,147.5 
		2.4,147.5 2.4,147.9 2.2,147.9 2.2,147.7 1,147.7 1,147.9 0.4,147.9 0.4,147.7 -0.8,147.7 -0.8,147.9 -2.8,147.9 -2.8,148.9 
		-2.8,148.9 -3.4,148.9 -3.4,148.9 -3.5,148.9 -3.5,148.9 -3.7,148.9 -4.1,148.9 -4.6,148.9 -4.6,148.9 -4.7,148.9 -4.7,148.9 
		-4.7,148.9 -5.2,148.9 -5.6,148.9 -5.8,148.9 -5.8,148.9 -6,148.9 -6,148.9 -6.1,148.9 -6.6,148.9 -6.6,148.9 -6.9,148.9 
		-6.9,148.9 -7,148.9 -7,149.8 -7,150 -7,150.3 -7,150.4 -7,150.8 -7,150.9 -7,151.4 -7,151.5 -7,152 -7,152.2 -7,152.4 -7,152.5 
		-7,153.1 -7,153.2 -7,153.5 -7,153.6 -7,154.2 -7,154.4 -7,154.8 -7,154.8 -7,155.3 -7,155.4 -7,155.8 -7,155.8 -7,156.5 -7,156.6 
		-7,156.9 -7,156.9 -7,157.5 -7,157.6 -7,157.9 -7,157.9 -7,158.5 -7,158.7 -7,159 -7,159 -7,159.5 -7,159.6 -7,160.1 -7,160.1 
		-7,160.7 -7,160.8 -7,161.1 -7,161.1 -7,161.8 -7,161.9 -7,162.1 -7,162.2 -7,162.9 -7,163.1 -7,163.4 -7,163.5 -7,164 -7,164.1 
		-7,164.4 -7,164.5 -7,165.2 -7,165.3 -7,165.5 -7,165.6 -7,166.1 -7,166.4 -7,166.6 -7,166.7 -7,167.2 -7,167.3 -7,167.6 -7,167.7 
		-7,168.3 -7,168.4 -7,168.7 -7,168.8 -7,169.4 -7,169.5 -7,169.8 -7,169.9 -7,170.4 -7,170.6 -7,170.8 -7,170.9 -7,171.7 -7,171.8 
		-7,172.1 -7,172.2 -7,172.6 -7,172.8 -7,173.2 -7,173.3 -7,173.9 -7,174 -7,174.4 -7,174.5 -7,174.9 -7,175.1 -7,175.3 -7,175.4 
		-7,175.7 -7,175.8 -7,176.1 -7,176.2 -7,176.7 -7,176.9 -7,177.2 -7,177.3 -7,177.9 -7,178.1 -7,178.5 -7,178.6 -7,178.9 -7,179.1 
		-7,179.3 -7,179.4 -7,180.2 -7,180.3 -7,180.6 -7,180.7 -7,181.1 -7,181.4 -7,181.7 -7,181.7 -7,182.4 -7,182.5 -7,182.7 -7,182.7 
		-7,183.4 -7,183.6 -7,183.8 -7,183.8 -7,184.7 -7,184.8 -7,185.1 -7,185.1 -7,185.6 -7,185.8 -7,186.1 -7,186.1 -7,186.9 -7,187 
		-7,187.2 -7,187.2 -7,187.8 -7,188.1 -7,188.5 -7,188.5 -7,189.1 -7,189.2 -7,189.4 -7,189.5 -7,190.1 -7,190.3 -7,190.5 -7,190.6 
		-7,191.4 -7,191.5 -7,191.8 -7,191.9 -7,192.3 -7,192.5 -7,192.6 -7,192.7 -7,193.4 -7,193.5 -7,193.7 -7,193.8 -7,194.3 -7,194.5 
		-7,194.8 -7,194.9 -7,195.6 -7,195.7 -7,196 -7,196.1 -7,196.6 -7,196.8 -7,197.1 -7,197.2 -7,197.8 -7,198 -7,198.2 -7,198.3 
		-7,198.8 -7,199 -7,199.2 -7,199.3 -7,200.1 -7,200.2 -7,200.5 -7,200.6 -7,201 -7,201.1 -7,201.6 -7,201.7 -7,202.1 -7,202.2 
		-7,202.4 -7,202.5 -7,203.1 -7,203.3 -7,203.5 -7,203.6 -7,204.3 -7,204.4 -7,204.8 -7,204.9 -7,205.3 -7,205.4 -7,205.8 -7,205.9 
		-7,206.5 -7,206.7 -7,206.9 -7,207 -7,207.5 -7,207.6 -7,208 -7,208.1 -7,208.7 -7,208.9 -7,209.2 -7,209.2 -7,209.8 -7,209.9 
		-7,210.3 -7,210.3 -7,210.7 -7,210.9 -7,211.4 -7,211.4 -7,211.8 -7,211.9 -7,212.4 -7,212.4 -7,213 -7,213.2 -7,213.5 -7,213.5 
		-7,214 -7,214.1 -7,214.5 -7,214.5 -7,215.2 -7,215.4 -7,215.6 -7,215.6 -7,216.2 -7,216.4 -7,216.6 -7,216.7 -7,217.4 -7,217.6 
		-7,217.8 -7,218 -7,218.5 -7,218.6 -7,218.9 -7,219 -7,219.4 -7,219.7 -7,220 -7,220.1 -7,220.5 -7,220.6 -7,220.8 -7,220.9 
		-7,221.7 -7,221.9 -7,222.1 -7,222.2 -7,222.7 -7,222.8 -7,223.2 -7,223.3 -7,223.9 -7,224.1 -7,224.4 -7,224.5 -7,225 -7,225.1 
		-7,225.5 -7,225.6 -7,226.9 -4.1,226.9 -3.7,226.9 -0.9,226.9 -0.8,226.9 5.6,226.9 5.7,226.9 18.7,226.9 18.7,225.1 18.7,225 
		18.7,224.1 18.7,223.9 18.7,222.8 18.7,222.7 18.7,221.9 18.7,221.7 18.7,162 18.7,148.9 	"/>
	<polygon points="69.5,136.8 69.5,149.4 63.8,149.4 63.8,226.4 69.5,226.4 69.5,227.4 90.5,227.4 90.5,136.8 	"/>
	<polygon points="186.1,200.6 186.1,138.6 183.3,138.6 183.3,134.6 178.5,134.6 178.5,124.9 174,124.9 174,124.6 174,124 174,123.5 
		174,122.9 174,122.7 174,122.3 174,121.5 172.1,119.5 172.1,119.5 172.1,119.5 172.1,119.5 172.1,119.5 172.1,119.1 172.1,118.8 
		172.1,118.7 172.1,118.7 172,118.7 170.9,117.9 170.9,115.8 169.7,115.8 169.7,114.1 168.1,114.1 168.1,112.9 166.8,112.9 
		166.8,111.9 165.7,111.9 165.7,110.7 164.2,110.7 164.2,109.3 163.3,109.3 163.3,104.4 162.9,104.4 162.9,109.3 162,109.3 
		162,110.7 160.5,110.7 160.5,111.9 159.5,111.9 159.5,112.9 158.1,112.9 158.1,114.1 156.6,114.1 156.6,115.8 155.3,115.8 
		155.3,117.9 154.2,118.7 154,118.7 154,118.8 154,119.1 154,119.5 154,119.6 152.1,121.6 152.1,122.3 152.1,122.9 152.1,123.5 
		152.1,124 152.1,124.6 152.1,124.9 147.3,124.9 147.3,134.6 142.4,134.6 142.4,138.6 139.7,138.6 139.7,200.6 131.7,200.6 
		131.7,226.6 194.1,226.6 194.1,200.6 	"/>
	<polygon points="447.4,131.8 447.4,130.7 445.3,130.7 445.3,128.1 445.1,128.1 445.1,127.9 441.7,127.9 441.7,127.6 441.1,127.6 
		441.1,127.3 439.4,127.3 439.4,127.6 434.8,127.6 434.8,127.9 429.6,127.9 429.6,128.1 429.5,128.1 429.5,130.7 428.8,130.7 
		428.8,132.7 425.5,132.7 425.5,226.6 432.8,226.6 444.2,226.6 451.4,226.6 451.4,131.8 	"/>
	<polygon points="328.2,177 328.3,177 328.3,175.7 328.2,175.7 328.2,175 328.2,174 328.2,173.7 328.2,173.7 328.2,172.7 328.2,172 
		328.2,171 328.2,170.7 328.2,169.8 328.2,169 328.2,168.1 328.2,167.7 328.2,166.8 328.2,166 328.2,165.1 328.2,164.8 328.2,163.8 
		328.2,163.1 328.2,162.1 328.2,161.8 328.2,160.8 328.2,160.4 328.2,159.1 328.2,157.8 328.2,156.1 328.2,154.9 328.2,153.2 
		328.2,151.9 328.2,150.2 328.2,148.9 328.2,146.8 328.2,143.1 328.2,142 328.2,140.8 325.9,140.8 325.9,142 296.8,142 296.8,140.9 
		294.5,140.9 294.5,142 294.5,143.2 294.5,146.8 294.5,148.9 294.5,150.2 294.5,151.9 294.5,153.2 294.5,154.9 294.5,156.1 
		294.5,157.8 294.5,159.1 294.5,160.8 294.5,162.1 294.5,163.8 294.5,165.1 294.5,166.8 294.5,168.1 294.5,169.8 294.5,171 
		294.5,172.7 294.5,174 294.5,175.7 294.5,177 294.5,178.7 294.5,180 294.5,181.7 294.5,182.8 294.5,184.7 294.5,185.8 294.5,187.5 
		294.5,188.8 294.5,190.5 294.5,191.8 294.5,193.5 294.5,194.8 294.5,196.5 294.5,197.7 294.5,199.4 294.5,200.7 294.5,202.4 
		294.5,203.7 294.5,205.4 294.5,206.7 294.5,208.4 294.5,209.7 294.5,211.4 294.5,212.6 294.5,214.3 294.5,215.6 294.5,217.3 
		294.5,218.6 294.5,220.3 294.5,221.6 294.5,223.3 294.5,224.5 294.5,226.3 294.5,227.5 294.5,200.3 294.5,201.6 294.5,203.3 
		294.5,204.5 294.5,206.2 294.5,207.5 294.5,209.2 294.5,210.5 294.5,212.2 294.5,213.5 294.5,215.2 294.5,207.1 294.5,208.8 
		294.5,210.1 294.5,211.8 294.5,213.1 294.5,214.8 294.5,216 294.5,217.7 294.5,219 294.5,220.7 294.5,222 294.5,223.7 294.5,225 
		294.5,227.5 294.5,228.5 310.6,228.5 328.2,228.5 328.3,225.8 328.3,225 328.3,223.7 328.3,222 328.3,220.7 328.3,219 328.3,217.7 
		328.3,216 328.3,214.8 328.3,213.1 328.3,211.8 328.3,210.1 328.3,208.8 328.3,207.1 328.3,215.2 328.3,213.5 328.3,212.2 
		328.3,210.5 328.3,210 328.3,209.2 328.2,209.2 328.2,208.5 328.2,207.5 328.3,207.5 328.3,206.2 328.2,206.2 328.2,205.5 
		328.2,204.5 328.3,204.5 328.3,203.3 328.2,203.3 328.2,202.5 328.2,201.6 328.3,201.6 328.3,200.3 328.2,200.3 328.2,228.5 
		328.2,227.5 328.3,227.5 328.3,226.3 328.2,226.3 328.2,225.5 328.2,224.5 328.3,224.5 328.3,223.3 328.2,223.3 328.2,222.5 
		328.2,221.6 328.3,221.6 328.3,220.3 328.2,220.3 328.2,219.5 328.2,218.6 328.3,218.6 328.3,217.3 328.2,217.3 328.2,216.6 
		328.2,215.6 328.3,215.6 328.3,214.3 328.2,214.3 328.2,213.6 328.2,212.6 328.3,212.6 328.3,211.4 328.2,211.4 328.2,210.6 
		328.2,209.7 328.3,209.7 328.3,208.4 328.2,208.4 328.2,207.6 328.2,206.7 328.3,206.7 328.3,205.4 328.2,205.4 328.2,204.7 
		328.2,203.7 328.3,203.7 328.3,202.4 328.2,202.4 328.2,201.7 328.2,200.7 328.3,200.7 328.3,199.4 328.2,199.4 328.2,198.7 
		328.2,197.7 328.3,197.7 328.3,196.5 328.2,196.5 328.2,195.8 328.2,194.8 328.3,194.8 328.3,193.5 328.2,193.5 328.2,192.8 
		328.2,191.8 328.3,191.8 328.3,190.5 328.2,190.5 328.2,189.9 328.2,188.8 328.3,188.8 328.3,187.5 328.2,187.5 328.2,186.9 
		328.2,185.8 328.3,185.8 328.3,184.7 328.2,184.7 328.2,183.9 328.2,182.8 328.3,182.8 328.3,181.7 328.2,181.7 328.2,180.9 
		328.2,180 328.3,180 328.3,178.7 328.2,178.7 328.2,177.9 	"/>
	<polygon points="601.1,160.8 600.9,160.8 600.3,160.8 600.1,160.8 599.6,160.8 599.4,160.8 598.9,160.8 598.7,160.8 598.2,160.8 
		598.2,160.1 598.2,159.9 598.2,158.8 598.2,158.6 598.2,158.2 598.2,157.9 598.2,157.3 598,157.3 597.5,157.3 597.3,157.3 
		596.7,157.3 596.5,157.3 596.1,157.3 595.9,157.3 595.3,157.3 595.1,157.3 594.6,157.3 594.4,157.3 594,157.3 593.7,157.3 
		593.2,157.3 593,157.3 592.5,157.3 592.3,157.3 591.7,157.3 591.6,157.3 591.1,157.3 590.9,157.3 590.3,157.3 590.1,157.3 
		589.6,157.3 589.4,157.3 589,157.3 588.7,157.3 588.2,157.3 588,157.3 587.5,157.3 587.3,157.3 586.8,157.3 586.6,157.3 
		586.1,157.3 585.9,157.3 585.3,157.3 585.1,157.3 584.6,157.3 584.5,157.3 584.2,157.3 584.2,160.8 584,160.8 583.7,160.8 
		583.2,160.8 583,160.8 582.8,160.8 582.1,160.8 582.1,161.2 582.1,161.5 582.1,162 582.1,162.4 582.1,162.5 582.1,162.5 
		582.1,162.7 582.1,163.3 582.1,163.9 582.1,164 582.1,164.7 582.1,165 582.1,165.2 582.1,165.2 582.1,165.4 582.1,165.9 
		582.1,166.5 582.1,166.7 582.1,167.3 582.1,167.6 582.1,167.8 582.1,167.8 582.1,168.1 582.1,168.6 582.1,169.1 582.1,169.3 
		582.1,170 582.1,170.3 582.1,170.5 582.1,170.5 582.1,170.6 582.1,171.2 582.1,171.8 582.1,172 582.1,172.5 582.1,172.9 
		582.1,173.1 582.1,173.2 582.1,173.3 582.1,173.9 582.1,174.4 582.1,174.7 582.1,175.2 582.1,175.6 582.1,175.7 582.1,175.7 
		582.1,175.9 582.1,176.6 582.1,177.1 582.1,177.3 582.1,177.8 582.1,178.3 582.1,178.4 582.1,178.4 582.1,178.6 582.1,179.1 
		582.1,179.8 582.1,179.9 582.1,180.5 582.1,180.8 582.1,181 582.1,181 582.1,181.2 582.1,181.8 582.1,182.3 582.1,182.5 
		582.1,183.2 582.1,183.5 582.1,183.7 582.1,183.7 582.1,183.9 582.1,184.4 582.1,185 582.1,185.2 582.1,185.8 582.1,186.1 
		582.1,186.4 582.1,186.4 582.1,186.5 582.1,187.1 582.1,187.6 582.1,187.8 582.1,188.4 582.1,188.8 582.1,188.9 582.1,189 
		582.1,189.1 582.1,189.8 582.1,190.3 582.1,190.5 582.1,191 582.1,191.5 582.1,191.6 582.1,191.6 582.1,191.8 582.1,192.4 
		582.1,193 582.1,193.2 582.1,193.7 582.1,194.1 582.1,194.2 582.1,194.2 582.1,194.4 582.1,195 582.1,195.6 582.1,195.7 
		582.1,196.4 582.1,196.7 582.1,196.9 582.1,196.9 582.1,197.1 582.1,197.6 582.1,198.2 582.1,198.4 582.1,199 582.1,199.3 
		582.1,199.5 582.1,199.5 582.1,199.8 582.1,200.3 582.1,200.8 582.1,201 582.1,201.7 582.1,202 582.1,202.2 582.1,202.2 
		582.1,202.3 582.1,203 582.1,203.5 582.1,203.7 582.1,204.2 582.1,204.7 582.1,204.8 582.1,204.9 582.1,205 582.1,205.6 
		582.1,206.1 582.1,206.4 582.1,206.6 582.1,206.8 582.1,206.9 582.1,207.4 582.1,207.6 582.1,208.3 581.3,208.3 581,208.3 
		580.2,208.3 579.9,208.3 579.1,208.3 578.9,208.3 578,208.3 577.8,208.3 576.9,208.3 576.7,208.3 575.8,208.3 575.8,208.2 
		575.8,207.6 575.8,207.1 575.8,206.9 575.8,206.4 575.8,205.7 575.8,205.6 575.8,205 575.8,204.4 575.8,204.2 575.8,203.7 
		575.8,203.2 575.8,203 575.8,203 575.8,202.4 575.8,201.9 575.8,201.7 575.8,201.7 575.8,201.5 575.8,201.1 575.8,200.5 
		575.8,200.4 575.8,199.8 575.8,199.2 575.8,199.1 575.8,199 575.8,198.9 575.8,198.5 575.8,198 575.8,197.7 575.8,197.2 
		575.8,196.7 575.8,196.5 575.8,196.5 575.8,196.2 575.8,195.9 575.8,195.3 575.8,195.2 575.8,194.5 575.8,194 575.8,193.9 
		575.8,193.8 575.8,193.7 575.8,193.3 575.8,192.7 575.8,192.5 575.8,192 575.8,191.5 575.8,191.2 575.8,191.2 575.8,191 
		575.8,190.7 575.8,190.1 575.8,190 575.8,189.3 575.8,188.8 575.8,188.6 575.8,188.6 575.8,188.5 575.8,188.1 575.8,187.5 
		575.8,187.3 575.8,186.8 575.8,186.1 575.8,186 575.8,186 575.8,185.8 575.8,185.5 575.8,184.9 575.8,184.8 575.8,184.7 
		575.8,184.1 575.8,183.6 575.8,183.4 575.8,183.4 575.8,183.3 575.8,182.8 575.8,182.3 575.8,182.1 575.8,181.6 575.8,180.9 
		575.8,180.8 575.8,180.8 575.8,180.6 575.8,180.2 575.8,179.7 575.8,179.4 575.8,178.9 575.8,178.4 575.8,178.2 575.8,178.2 
		575.8,178.1 575.8,177.6 575.8,177.1 575.8,176.9 575.8,176.4 575.8,175.7 575.8,175.6 575.8,175.6 575.8,175.4 575.8,175 
		575.8,174.4 575.8,174.2 575.8,173.7 575.8,173.2 575.8,172.9 575.8,172.9 575.8,172.8 575.8,172.4 575.8,171.9 575.8,171.7 
		575.8,171.1 575.8,170.5 575.8,170.4 575.8,170.4 575.8,170.2 575.8,169.8 575.8,169.2 575.8,169 575.8,168.5 575.8,167.9 
		575.8,167.7 575.8,167.7 575.8,167.6 575.8,167.2 575.8,166.7 575.8,166.5 575.8,165.9 575.8,165.9 575.8,165.3 575.8,165.2 
		575.8,165.1 575.8,165 575.8,164.5 575.8,164 575.8,163.8 575.8,163.3 575.8,162.7 575.8,162.5 575.8,162.5 575.8,162.4 575.8,162 
		575.8,161.4 575.8,161.2 575.8,161.2 575.8,160.8 575.8,160.6 575.8,160.1 575.8,160 575.8,159.9 575.8,159.8 575.8,159.3 
		575.8,158.8 575.8,158.6 575.8,158.1 575.8,157.5 575.8,157.3 575.8,157.3 575.8,157.1 575.8,156.8 575.8,156.1 575.8,156 
		575.8,155.4 575.8,154.9 575.8,154.8 575.8,154.6 575.8,154.5 575.8,154.1 575.8,153.6 575.8,153.4 575.8,152.8 575.8,152.3 
		575.8,152.1 575.8,152.1 575.8,151.9 575.8,151.6 575.8,150.9 575.8,150.8 575.8,150.2 575.8,149.6 575.8,149.5 575.8,149.4 
		575.8,149.3 575.8,148.9 574.8,148.9 574.6,148.9 573.5,148.9 573.5,148.4 573.5,148.4 573.5,148.2 573.5,147.6 573.5,147.6 
		573.5,147.1 573.5,147.1 573.5,146.9 573.5,146.9 573.5,146.7 573.5,146.4 573.5,146.4 573.5,145.7 573.5,145.7 573.5,145.6 
		573.5,145 573.5,145 573.5,144.4 573.5,144.4 573.5,144.2 573.5,144.2 573.5,144.1 573.5,143.7 573.5,143.7 573.5,143.2 
		573.5,143.2 573.5,142.9 573.5,142.4 573.5,141.8 573.5,141.7 573.5,141.7 573.5,141.5 573.5,141.1 573.5,141 573.5,141 573.3,141 
		573.1,141 571.9,141 571.7,141 570.6,141 570.3,141 569.2,141 569,141 567.7,141 567.6,141 566.3,141 566.1,141 564.9,141 
		564.7,141 564.4,141 563.5,141 563.3,141 562.1,141 561.9,141 560.7,141 560.4,141 559.6,141 559.3,141 559.1,141 557.9,141 
		557.7,141 556.5,141 556.3,141 555.2,141 555.2,141.1 555.2,141.5 555.2,141.7 555.2,141.7 555.2,141.8 555.2,142.4 555.2,142.9 
		555.2,143.2 555.2,143.7 555.2,144.1 555.2,144.2 555.2,144.2 555.2,144.4 555.2,145 555.2,145.6 555.2,145.7 555.2,146.4 
		555.2,146.7 555.2,146.9 555.2,146.9 555.2,147.1 555.2,147.6 555.2,148.2 555.2,148.4 555.2,148.9 555.2,149.3 555.2,149.4 
		555.2,149.5 555.2,149.6 555.2,150.2 555.2,150.8 555.2,150.9 555.2,151.6 555.2,151.9 555.2,152.1 555.2,152.1 555.2,152.3 
		555.2,152.8 555.2,153.4 555.2,153.6 555.2,154.1 555.2,154.5 555.2,154.6 555.2,154.8 555.2,154.9 555.2,155.4 555.2,156 
		555.2,156.1 555.2,156.8 555.2,157.1 555.2,157.3 555.2,157.3 555.2,157.3 555,157.3 555,157.3 554.9,157.3 554.9,157.3 
		553.6,157.3 553.6,157.3 553.4,157.3 553.4,157.3 552.6,157.3 552.6,158.1 552.6,158.6 552.6,158.8 552.6,159.3 552.6,159.8 
		552.6,159.9 552.6,160 552.6,160.1 552.6,160.6 552.6,161.2 552.6,161.4 552.6,162 552.6,162.5 552.6,162.7 552.6,163.3 
		552.6,163.8 552.6,164 552.6,164.5 552.6,165.1 552.6,165.3 552.6,165.9 552.6,165.9 552.6,166.5 552.6,166.7 552.6,167.2 
		552.6,167.7 552.6,167.9 552.6,168.5 552.6,169 552.6,169.2 552.6,169.8 552.6,170.4 552.6,170.5 552.6,171.1 552.6,171.7 
		552.6,171.9 552.6,172.4 552.6,172.9 552.6,173.2 552.6,173.7 552.6,174.2 552.6,174.4 552.6,175 552.6,175.6 552.6,175.7 
		552.6,176.4 552.6,176.9 552.6,177.1 552.6,177.6 552.6,178.2 552.6,178.4 552.6,178.9 552.6,179.4 552.6,179.7 552.6,180.2 
		552.6,180.8 552.6,180.9 552.6,181.6 552.6,182.1 552.6,182.3 552.6,182.8 552.6,183.4 552.6,183.6 552.6,184.1 552.6,184.7 
		552.6,184.8 552.6,184.9 552.6,185.5 552.6,186 552.6,186.1 552.6,186.8 552.6,187.3 552.6,187.5 552.6,188.1 552.6,188.6 
		552.6,188.8 552.6,189.3 552.6,190 552.6,190.1 552.6,190.7 552.6,191.2 552.6,191.5 552.6,192 552.6,192.5 552.6,192.7 
		552.6,193.3 552.6,193.8 552.6,194 552.6,194.5 552.6,195.2 552.6,195.3 552.6,195.9 552.6,196.5 552.6,196.7 552.6,197.2 
		552.6,197.7 552.6,198 552.6,198.5 552.6,199 552.6,199.2 552.6,199.8 552.6,200.4 552.6,200.5 552.6,201.1 552.6,201.7 
		552.6,201.9 552.6,202.4 552.6,203 552.6,203 552.6,203.2 552.6,203.7 552.6,204.2 552.6,204.4 552.6,205 552.6,205.6 552.6,205.7 
		552.6,206.4 552.6,206.9 552.6,207.1 552.6,207.6 552.6,208.2 552.6,208.4 552.6,208.9 552.6,209.4 552.6,209.7 552.6,210.3 
		552.6,210.8 552.6,210.9 552.6,211.6 552.6,212.1 552.6,212.3 552.6,228 552.6,228.6 552.6,228.7 552.6,229.2 552.6,229.2 
		567.5,229.2 575.8,229.2 575.8,229.3 582.1,229.3 598.1,229.3 601.6,229.3 601.6,228.6 601.6,228.5 601.6,228.3 601.6,212.6 
		601.6,212.1 601.6,212 601.6,211.8 601.6,211.4 601.6,210.7 601.6,210.5 601.6,210 601.6,209 601.6,208.8 601.6,208.3 601.6,207.6 
		601.6,207.4 601.6,206.9 601.6,206.4 601.6,206.1 601.6,205.6 601.6,205 601.6,204.9 601.6,204.2 601.6,203.7 601.6,203.5 
		601.6,203 601.6,202.3 601.6,202.2 601.6,201.7 601.6,201 601.6,200.8 601.6,200.3 601.6,199.8 601.6,199.5 601.6,199 601.6,198.4 
		601.6,198.2 601.6,197.6 601.6,197.1 601.6,196.9 601.6,196.4 601.6,195.7 601.6,195.6 601.6,195 601.6,194.4 601.6,194.2 
		601.6,193.7 601.6,193.2 601.6,193 601.6,192.4 601.6,191.8 601.6,191.6 601.6,191 601.6,190.5 601.6,190.3 601.6,189.8 
		601.6,189.1 601.6,189 601.6,188.4 601.6,187.8 601.6,187.6 601.6,187.1 601.6,186.5 601.6,186.4 601.6,185.8 601.6,185.2 
		601.6,185 601.6,184.4 601.6,183.9 601.6,183.7 601.6,183.2 601.6,182.5 601.6,182.3 601.6,181.8 601.6,181.2 601.6,181 
		601.6,180.5 601.6,179.9 601.6,179.8 601.6,179.1 601.6,178.6 601.6,178.4 601.6,177.8 601.6,177.3 601.6,177.1 601.6,176.6 
		601.6,175.9 601.6,175.7 601.6,175.7 601.6,175.2 601.6,174.7 601.6,174.4 601.6,173.9 601.6,173.3 601.6,173.2 601.6,172.5 
		601.6,172 601.6,171.8 601.6,171.2 601.6,170.6 601.6,170.5 601.6,170 601.6,170 601.6,169.3 601.6,169.1 601.6,168.6 601.6,168.1 
		601.6,167.8 601.6,167.3 601.6,166.7 601.6,166.5 601.6,165.9 601.6,165.8 601.6,165.4 601.6,165.2 601.6,164.7 601.6,164 
		601.6,163.9 601.6,163.3 601.6,162.7 601.6,162.5 601.6,162 601.6,161.5 601.6,161.2 601.6,160.8 	"/>
	<polygon points="20.3,210.7 20.3,191.6 24.4,191.6 24.4,172.9 28.8,172.9 28.8,131.8 32.1,131.8 32.1,128.2 37.6,128.2 37.6,125.8 
		51.3,125.8 51.3,128.2 53.1,128.2 53.1,131.8 53.1,135.5 53.1,172.9 53.1,177.4 53.1,194 53.1,195.7 53.1,216.9 53.1,218.6 
		53.1,229.4 -1.3,229.4 -1.3,210.7 	"/>
	<polygon points="286.3,206.1 286.3,182.4 286.3,181.9 286.3,181.4 286.3,180.8 286.3,180.2 286.3,179.7 286.3,179 286.3,178.5 
		286.3,177.9 286.3,177.4 286.3,177 286.3,176.5 286.3,176 286.3,175.5 286.3,174.9 286.3,174.3 286.3,173.7 286.3,173.2 
		286.3,172.6 286.3,172.1 286.3,171.5 286.3,170.9 286.3,170.3 286.3,169.8 286.3,169.2 286.3,168.7 286.3,168.1 286.3,167.5 
		286.3,166.9 286.3,166.4 286.3,165.8 286.3,165.3 286.3,164.7 286.3,164.1 286.3,163.5 286.3,162.9 286.3,162.4 286.3,161.9 
		286.3,161.2 286.3,160.7 286.3,160.1 286.3,159.5 286.3,159 286.3,158.5 286.3,157.8 286.3,157.3 286.3,156.7 286.3,156.1 
		286.3,155.6 286.3,155.1 286.3,154.4 286.3,153.9 286.3,153.3 286.3,152.7 286.3,152.2 286.3,151.7 286.3,151 286.3,150.5 
		286.3,149.9 286.3,149.3 286.3,148.8 286.3,148.3 286.3,147.6 286.3,147.1 286.3,146.5 286.3,145.9 286.3,145.4 286.3,144.9 
		286.3,144.2 286.3,143.7 286.3,143.1 286.3,142.5 286.3,142 286.3,141.5 286.3,140.8 286.3,140.3 286.3,139.6 286.3,139.1 
		286.3,138.6 286.3,138.1 286.3,137.4 286.3,136.9 286.3,136.2 286.3,135.7 286.3,135.2 286.3,134.6 286.3,134 286.3,133.5 
		286.3,132.8 286.3,132.3 286.3,131.8 286.3,131.2 286.3,130.6 286.3,130.1 286.3,129.4 286.3,128.9 286.3,128.4 286.3,127.9 
		286.3,127.8 286.3,127.2 286.3,126.7 286.3,126 286.3,125.5 286.3,125 286.3,124.4 286.3,123.8 286.3,123.6 286.3,123.3 
		286.3,122.3 284.3,120.5 284.3,120.5 284.3,120.5 284.3,120.5 284.3,120.4 284.3,120.1 284.3,119.6 284.3,119.6 284.3,119.6 
		284,119.6 277.4,115.2 277.2,115.2 277.2,115.2 276.9,115.2 276.9,114.4 276.1,114.4 276.1,113.5 275.5,113.5 275.5,112.4 
		274.7,112.4 274.7,105.3 274.3,105.3 274.3,112.4 273.4,112.4 273.4,113.5 272.9,113.5 272.9,114.4 272,114.4 272,115.2 
		271.7,115.2 271.4,115.2 264.9,119.6 264.7,119.6 264.7,119.6 264.7,120.1 264.7,120.4 264.7,120.6 262.7,122.4 262.7,123.3 
		262.7,123.8 262.7,124.4 262.7,125 262.7,125.5 262.7,126 262.7,126.7 262.7,127.2 262.7,127.8 262.7,127.9 262.7,128.4 
		262.7,128.9 262.7,129.4 262.7,130.1 262.7,130.6 262.7,131.2 262.7,131.8 262.7,132.3 262.7,132.8 262.7,133.5 262.7,134 
		262.7,134.6 262.7,135.2 262.7,135.7 262.7,136.2 262.7,136.9 262.7,137.4 262.7,138.1 262.7,138.6 262.7,139.1 262.7,139.6 
		262.7,140.3 262.7,140.8 262.7,141.5 262.7,142 262.7,142.5 262.7,143.1 262.7,143.7 262.7,144.2 262.7,144.9 262.7,145.4 
		262.7,145.9 262.7,146.5 262.7,147.1 262.7,147.6 262.7,148.3 262.7,148.8 262.7,149.3 262.7,149.9 262.7,150.5 262.7,151 
		262.7,151.7 262.7,152.2 262.7,152.7 262.7,153.3 262.7,153.9 262.7,154.4 262.7,155.1 262.7,155.6 262.7,156.1 262.7,156.7 
		262.7,157.3 262.7,157.8 262.7,158.5 262.7,159 262.7,159.5 262.7,160.1 262.7,160.7 262.7,161.2 262.7,161.9 262.7,162.4 
		262.7,162.9 262.7,163.5 262.7,164.1 262.7,164.7 262.7,165.3 262.7,165.8 262.7,166.4 262.7,166.9 262.7,167.5 262.7,168.1 
		262.7,168.7 262.7,169.2 262.7,169.8 262.7,170.3 262.7,170.9 262.7,171.5 262.7,172.1 262.7,172.6 262.7,173.2 262.7,173.7 
		262.7,174.3 262.7,174.9 262.7,175.5 262.7,176 262.7,176.5 262.7,177 262.7,177.4 262.7,177.9 262.7,178.5 262.7,179 262.7,179.7 
		262.7,180.2 262.7,180.8 262.7,181.4 262.7,181.9 262.7,182.4 262.7,206.1 253.4,206.1 253.4,226.7 295.2,226.7 295.2,206.1 	"/>
	<polygon points="376.4,170.4 376.4,167.6 352.6,167.6 352.6,170.4 351.5,170.4 351.5,225.6 377.5,225.6 377.5,170.4 	"/>
	<polygon points="349.6,215.4 349.6,122.3 349.6,120.1 349.6,119.4 349.6,119.1 349.6,116.1 349,116.1 348.7,116.1 348.7,116.1 
		348.7,115.3 348.7,115.3 348.7,114.4 349.6,114.4 349.6,113.5 346.5,113.5 346.5,112.5 345.6,112.5 345.6,111.8 330,111.8 
		330,112.5 329.2,112.5 329.2,113.5 326.1,113.5 326.1,114.4 326.9,114.4 326.9,115.3 326.9,116.1 326.5,116.1 326.1,116.1 
		326.1,119.1 326.1,119.4 326.1,120.1 326.1,122.3 326.1,215.4 325,215.4 325,218.1 325,222.6 325,225.7 326.1,225.7 328.5,225.7 
		334.5,225.7 345.4,225.7 347.2,225.7 358.3,225.7 360.2,225.7 362.7,225.7 363.6,225.7 363.6,222.6 363.6,218.1 363.6,215.4 	"/>
	<polygon points="494.3,223.4 494.3,217.7 494.3,217 494.3,132.7 493.2,132.7 492.1,132.7 491.2,132.7 489.8,132.7 489.8,131.9 
		487.7,131.9 487.7,130.9 487.4,130.9 487.4,131.9 487.1,131.9 487.1,132.7 486.8,132.7 486.8,131.9 486.4,131.9 486.4,130.7 
		486,130.7 486,131.9 484.1,131.9 484.1,132.7 481.6,132.7 481.6,128.1 450.8,128.1 450.8,132.7 441.3,132.7 440.3,132.7 
		439.3,132.7 438.2,132.7 438.2,217 438.2,217.7 438.2,223.4 437.4,223.4 437.4,223.9 438.2,223.9 438.2,224.7 438.2,225.4 
		438.2,226.8 439.8,226.8 442.5,226.8 443.8,226.8 446.6,226.8 449.4,226.8 452,226.8 454.8,226.8 457.6,226.8 458.9,226.8 
		461.6,226.8 464.4,226.8 467,226.8 469.8,226.8 472.6,226.8 473.9,226.8 476.6,226.8 479.4,226.8 482.1,226.8 484.8,226.8 
		487.6,226.8 489,226.8 491.6,226.8 494.3,226.8 494.3,225.4 494.3,224.7 494.3,223.9 495,223.9 495,223.4 	"/>
	<polygon points="431.3,209.4 431.3,208.3 431.3,206.2 431.3,204.9 431.3,202.8 431.3,201.5 431.3,199.4 431.3,198.1 431.3,196 
		431.3,194.7 431.3,192.6 431.3,191.5 431.3,189.4 431.3,188.5 431.3,186.5 431.3,185.1 431.3,183.1 431.3,181.7 431.3,179.7 
		431.3,178.3 431.3,176.2 431.3,174.9 431.3,172.7 431.3,171.5 431.3,169.3 431.3,167.9 431.3,165.9 431.3,164.5 431.3,162.5 
		431.3,161.1 431.3,159.1 431.3,157.7 431.3,155.7 431.3,154.3 431.3,152.3 431.3,150.9 431.3,148.9 431.3,147.5 431.3,145.5 
		431.3,144.1 431.3,142.1 431.3,140.7 431.3,138.6 431.3,137.3 431.3,135.2 431.3,133.8 431.3,131.8 431.3,130.4 431.3,128.4 
		431.3,127 431.3,125 431.3,123.5 427.4,123.5 427.4,122.1 427.6,122.1 427.6,118.8 426.9,118.8 426.9,116.7 427.1,116.7 
		427.1,116.3 416.1,116.3 416.1,115.8 414.4,115.8 414.4,113.8 414.4,113.8 413.9,113.2 413.9,105.8 413.5,104.6 413.5,100.7 
		413.2,100.7 413.2,104.6 412.9,105.8 412.9,113.2 412.3,113.8 412.3,113.8 412.3,115.8 410.6,115.8 410.6,116.3 399.6,116.3 
		399.6,116.7 399.9,116.7 399.9,118.8 399.2,118.8 399.2,122.1 399.2,122.1 399.5,122.1 399.5,123.5 395.4,123.5 395.4,125 
		395.4,127 395.4,128.4 395.4,130.4 395.4,131.8 395.4,133.8 395.4,135.2 395.4,137.3 395.4,138.6 395.4,140.7 395.4,142.1 
		395.4,144.1 395.4,145.5 395.4,147.5 395.4,148.9 395.4,150.9 395.4,152.3 395.4,154.3 395.4,155.7 395.4,157.7 395.4,159.1 
		395.4,161.1 395.4,162.5 395.4,164.5 395.4,165.9 395.4,167.9 395.4,169.3 395.4,171.5 395.4,172.7 395.4,174.9 395.4,176.2 
		395.4,178.3 395.4,179.7 395.4,181.7 395.4,183.1 395.4,185.1 395.4,186.5 395.4,188.5 395.4,189.4 395.4,191.5 395.4,192.6 
		395.4,194.7 395.4,196 395.4,198.1 395.4,199.4 395.4,201.5 395.4,202.8 395.4,204.9 395.4,206.2 395.4,208.3 395.4,209.4 
		382.6,209.4 382.6,209.4 382.6,212.5 382.6,227 384.9,227 384.9,212.5 384.9,212.5 384.9,227 386.5,227 386.5,212.5 391.6,212.5 
		391.6,226.8 392.9,226.8 394,226.8 395.6,226.8 399.2,226.8 402.9,226.8 405.2,226.8 405.3,226.8 406.8,226.8 407.9,226.8 
		411.2,226.8 411.7,226.8 415,226.8 415.5,226.8 418.8,226.8 421.5,226.8 423.9,226.8 425.5,226.8 427.6,226.8 432.7,226.8 
		433.9,226.8 435.1,226.8 435.1,212.5 435.1,212.5 435.1,226.8 436.7,226.8 436.7,212.5 441.8,212.5 441.8,226.8 444.3,226.8 
		444.3,212.5 444.3,209.4 444.3,209.4 	"/>
	<path d="M512.6,202.8v-0.3l0,0V202h0.4v-0.7h-2.3l-6.1-2v-0.3h0.3v-0.5H486v-5.2l0,0v-0.4v-0.2h0.1v-0.3H486v-1.9v-0.4h0.1v-0.3
		H486h-1.1v-6.6h1.1v-0.6h0.6v-0.7h-0.4v-0.4h-0.1h-0.4l-2.8-8.2h0.3v-1.2h-0.3v-0.3h-0.6V171h-0.5v-8.1c0.1,0,0.1-0.1,0.1-0.2
		c0-0.2-0.1-0.3-0.3-0.3c-0.2,0-0.3,0.1-0.3,0.3c0,0.1,0,0.1,0.1,0.2v8.3h-0.5v0.4h-0.6v0.3h-0.3v1.2h0.3l-2.8,8.2h-0.4h-0.1v0.4
		h-0.2v0.7h0.3v0.4l0,0v0.2h1.1v6.6h-1.1h-0.1v0.3h0.1v0.4v1.9h-0.1v0.3h0.1v0.2v0.5v5.2h-22v0.5h0.3v0.3l0,0l-6.1,2h-2.4v0.6h0.4v1
		h-1.4v0.1v0.4v0.2v0.6v0.5v4.4v0.5v1.5v8v0.6v0.6v1.2v2.6v1v1.9h7.4h0.7h0.4h0.7h1.1h0.4h1.1h0.4h1h0.4h1.1h0.5h0.7h0.4h0.4h1h0.4
		h0.6h0.4h0.6h0.4h0.9h1.2h0.7h0.4h1.1h1h0.4h0.6h0.4h0.6h0.4h0.9h1.1h0.7h0.4h1.3h1h0.4h0.6h0.4h0.6h0.4h0.9h1.1h0.7h0.4h1.3h1h0.4
		h0.6h0.4h0.5h0.4h1h1.1h0.7h0.4h1.1h0.9h0.4h0.6h0.4h0.6h0.4h1h0.4h0.7h0.4h0.4h1.1h0.4h1.1h0.4h1h0.4h1.1h0.4h0.7h0.4h6.6v-1.9v-1
		v-3v-1.2v-0.6V219v-8v-1.5V209v-4.4v-0.5v-0.6v-0.1V203v-0.1H512.6z"/>
	<polygon points="311.9,209 311.9,131.2 306.9,131.2 306.9,127 301.7,127 301.7,122.2 296.3,122.2 296.3,205.8 291.1,205.8 
		291.1,210.6 291.1,211.1 291.1,213 291.1,213.5 291.1,215.4 291.1,215.9 291.1,217.8 291.1,218.3 291.1,220.3 291.1,220.7 
		291.1,221.5 291.1,221.5 296.3,221.5 296.3,223.2 296.3,225.1 306.7,225.1 311.9,225.1 312.7,225.1 316.4,225.1 317.1,225.1 
		317.1,209 	"/>
	<polygon points="219.6,215.2 219.6,190.5 219.6,189.7 219.6,185.5 216.8,185.5 216.8,177.7 214.5,177.7 214.5,168.3 214.5,167.5 
		214.7,167.5 214.7,166.5 214.5,166.5 214.5,165.8 212.1,165.8 205.8,162 199.5,165.8 197.1,165.8 197.1,166.5 196.9,166.5 
		196.9,167.5 197.1,167.5 197.1,168.3 197.1,177.7 194.8,177.7 194.8,185.3 192,185.3 192,189.7 192,190.5 192,215.2 181.4,215.2 
		181.4,226.4 198.3,226.4 198.7,226.4 199.7,226.4 199.7,226.4 200.2,226.4 202.4,226.4 202.4,226.4 202.8,226.4 203.5,226.4 
		203.6,226.4 203.6,226.4 203.9,226.4 207.9,226.4 208,226.4 208.8,226.4 209.4,226.4 211.7,226.4 211.7,226.4 211.9,226.4 
		212.7,226.4 213.2,226.4 213.4,226.4 230.2,226.4 230.2,224.2 230.2,222.2 230.2,220.4 230.2,218.5 230.2,215.2 	"/>
	<polygon points="159.1,139 159.1,142.1 155.2,142.1 155.2,225.5 159.1,225.5 181.3,225.5 185.3,225.5 185.3,139 	"/>
	<polygon points="126.7,145.9 123.6,145.9 123.6,140.2 119.9,140.2 119.9,131.8 118.7,131.8 118.7,131.4 114.8,131.4 114.8,128.2 
		114.7,128.2 114.7,125.4 114.5,125.4 114.5,128.2 114.3,128.2 114.3,131.4 114.1,131.4 114.1,131.8 111.4,131.8 111.4,130.9 
		106.8,130.9 106.8,131.8 106.2,131.8 106.2,227.7 119.9,227.7 119.9,227.7 126.7,227.7 	"/>
	<polygon points="524.6,220 526,220 526,167.5 529.5,167.5 529.5,166.8 532.9,166.8 532.9,167.5 549.5,167.5 549.5,171.6 
		553.1,171.6 553.1,220 555.8,220 555.8,226.1 553.1,226.1 553.1,226.4 549.5,226.4 529.6,226.4 526,226.4 526,226.1 524.6,226.1 	
		"/>
	<polygon points="267.8,134.6 267.8,137.8 271.8,137.8 271.8,226.6 267.8,226.6 245.6,226.6 241.7,226.6 241.7,134.6 	"/>
	<polygon points="529.6,88.7 529.6,87.9 529.6,87.9 529.6,87.9 522.1,87.9 522.1,86.5 518.8,85.1 520.9,85.1 520.9,85.1 520.9,84.2 
		520.3,74.8 520.3,74.8 520.3,74.1 520.7,74.1 520.7,74.1 522,74.1 522,73.4 522,73.4 522,73.4 520.7,73.4 520.7,72.4 520.7,72.4 
		519.9,72.4 519.9,72.4 519.9,73.4 518.1,73.4 517.7,66.3 517.7,66.3 517.7,65.9 518.4,65.9 518.4,66 518.4,66 519.2,66 519.2,66 
		519.2,65.9 519.2,65.3 519.2,64.2 519.2,64.2 519.2,64.2 518.4,64.2 518.4,65.3 517.4,65.3 517.4,64.2 517.4,64.2 517.4,64.2 
		516.6,64.2 516.6,65.3 515.7,65.3 515.7,42 515.7,42 515.7,42 514.9,42 514.9,41.3 515.8,41.3 516.6,41.3 516.6,40.6 516.6,39.3 
		516.6,39.3 516.6,39.3 515.8,39.3 515.8,40.6 514.9,40.6 514.9,29.7 515.8,29.7 515.8,29.7 516.6,29.7 516.6,29.7 516.6,29.1 
		516.6,27.8 516.6,27.8 515.8,27.8 515.8,27.8 515.8,29.1 514.9,29.1 514.9,29 514.9,16.7 515.8,16.7 516.6,16.7 516.6,16 
		516.6,14.6 516.6,14.6 515.8,14.6 515.8,14.6 515.8,16 514.9,16 514.6,16 514.6,4.7 514.6,4 514.6,4 514.6,4 513.7,4 513.7,4.7 
		513.7,16 513.4,16 512.6,16 512.6,14.6 511.7,14.6 511.7,16 511.7,16.7 512.6,16.7 513.4,16.7 513.4,29 513.4,29.1 512.6,29.1 
		512.6,27.8 511.7,27.8 511.7,29.1 511.7,29.7 512.6,29.7 513.4,29.7 513.4,40.6 512.6,40.6 512.6,39.3 511.7,39.3 511.7,40.6 
		511.7,41.3 512.6,41.3 513.4,41.3 513.4,42 512.6,42 512.6,65.3 511.6,65.3 511.6,64.2 510.9,64.2 510.9,65.3 509.9,65.3 
		509.9,64.2 509.2,64.2 509.2,65.3 509.2,65.9 509.2,66 509.9,66 509.9,65.9 510.5,65.9 510.5,66.3 510.5,66.3 510.2,73.4 
		507.8,73.4 507.8,72.4 507,72.4 507,73.4 506.3,73.4 506.3,74.1 507,74.1 507,74.1 507.8,74.1 507.8,74.1 508,74.1 508,74.1 
		508,74.1 508,74.8 508,74.8 507.4,84.2 507.4,85.1 508.6,85.1 505.3,86.5 505.3,87.9 498.7,87.9 498.7,88.7 503.5,88.7 501.9,90 
		501.9,90 501.9,90 501.9,90.4 501.9,90.7 498.7,90.7 498.7,91.3 501.9,91.3 501.9,92 501.9,92 501.9,92.1 501.9,92.1 503.5,93.4 
		501,93.4 501,94.1 503.7,94.1 503.7,94.8 503.7,95.3 504.4,95.3 504.4,96.1 504.4,97 505.3,97 505.3,99.4 505.3,100 505.3,100.5 
		505.3,101.3 505.3,101.9 505.3,102.6 505.3,103.2 505.3,103.7 506.2,115.1 508,134.8 508.6,134.8 508.6,188.6 508.3,188.6 
		507.6,188.6 507.4,195 506.3,195 506.3,200.4 507.1,200.4 507.1,202.3 507,207.2 506.8,213.9 505.1,213.9 505.1,217.4 506.7,217.4 
		506.5,226.3 507.2,226.3 507.4,226.3 508,226.3 508.8,226.3 510.7,226.3 511.4,226.3 512.1,226.3 513,226.3 513.7,226.3 
		514.2,226.3 515.3,226.3 515.3,226.3 516.2,226.3 516.2,226.3 516.9,226.3 516.9,226.3 517.8,226.3 517.8,226.3 519.5,226.3 
		519.5,226.3 520.1,226.3 520.1,226.3 521,226.3 521.1,226.3 520.8,217.4 522.4,217.4 522.4,213.9 522.4,213.9 520.7,213.9 
		520.4,207.2 520.5,207.2 520.5,207.2 520.3,201.5 520.3,200.4 521.3,200.4 521.3,200.4 521.3,195 521.3,195 520.1,195 519.9,188.6 
		519.9,188.6 518.8,188.6 518.8,134.8 519.5,134.8 519.5,134.8 521.3,115.1 522.1,103.7 522.1,103.2 522.1,102.6 522.1,101.9 
		522.1,101.3 522.1,100.5 522.1,100 522.1,99.4 522.1,97 523.3,97 523.3,97 523.3,96.1 523.3,95.3 524,95.3 524,94.8 524,94.1 
		527.3,94.1 527.3,94.1 527.3,93.4 527.3,93.4 524,93.4 525.1,92.4 525.2,92.4 525.2,92.4 525.7,92.1 525.7,91.3 529.6,91.3 
		529.6,91.3 529.6,90.7 529.6,90.7 525.7,90.7 525.7,90.4 525.7,90 525.7,90 525.7,90 525.7,90 524,88.7 	"/>
	<g>
		<polygon points="28,216.8 26.4,216.8 26.4,179.2 8.7,173.8 8.7,216.8 3.6,216.8 3.6,188.7 -14.1,194.1 -14.1,216.8 -15.3,216.8 
			-15.3,218 -16.9,218 -16.9,225.8 10.1,225.8 28.8,225.8 28.8,218 28,218 		"/>
		<polygon points="57.1,155.6 57.1,152 33.4,152 33.4,155.6 32.2,155.6 32.2,225.3 58.3,225.3 58.3,155.6 		"/>
	</g>
	<polygon points="618.2,169.3 618.2,169.5 618.2,170 618.2,170.1 618.2,170.6 618.2,170.6 618.2,171.1 618.2,171.2 618.2,171.8 
		618.2,171.8 618.2,172.3 618.2,172.4 619.7,172.4 619.7,172.4 619.7,172.4 619.7,172.7 619.7,172.8 619.7,173.3 619.7,173.4 
		619.7,173.9 619.7,174 619.7,174.5 619.7,174.5 619.8,174.5 619.9,174.5 620.2,174.5 620.2,174.5 620.6,174.5 620.7,174.5 
		621,174.5 621.1,174.5 621.3,174.5 621.4,174.5 621.5,174.5 621.5,174.5 621.5,174.5 621.5,222.2 621.5,222.2 621.5,222.3 
		621.5,222.4 621.5,222.5 621.5,223 621.5,223.2 621.5,223.3 621.5,223.3 621.5,224.5 621.5,224.5 621.5,224.7 621.5,224.7 
		621.5,224.9 621.5,225.6 621.5,225.7 621.5,225.9 621.5,226.4 621.5,226.4 621.2,226.4 620.3,226.4 620.1,226.4 618.5,226.4 
		618.4,226.4 618.2,226.4 617.3,226.4 616.7,226.4 616.4,226.4 614.6,226.4 614.4,226.4 612.8,226.4 612.5,226.4 611,226.4 
		610.8,226.4 609.2,226.4 608.9,226.4 607.4,226.4 607,226.4 605.6,226.4 605.2,226.4 603.6,226.4 603.3,226.4 601.9,226.4 
		601.6,226.4 600,226.4 599.7,226.4 598.2,226.4 597.9,226.4 597.8,226.4 597.8,226.5 597.7,226.5 597.7,226.4 597.5,226.4 
		597.5,226.5 597.5,226.5 597.5,226.4 597.3,226.4 597.3,226.5 597.1,226.5 597.1,226.4 596.9,226.4 596.9,226.5 596.8,226.5 
		596.8,226.4 596.6,226.4 596.6,226.5 596.5,226.5 596.5,226.4 596.4,226.4 596.4,226.5 596.3,226.5 596.3,226.4 596.1,226.4 
		596.1,226.5 596,226.5 596,226.4 595.8,226.4 595.8,226.5 595.7,226.5 595.7,226.4 595.6,226.4 595.6,226.5 595.4,226.5 
		595.4,226.4 595.2,226.4 595.2,226.5 595.1,226.5 595.1,226.4 594.9,226.4 594.9,226.5 594.8,226.5 594.8,226.4 594.6,226.4 
		594.6,226.5 594.6,226.5 594.6,226.4 594.4,226.4 594.4,226.5 594.3,226.5 594.3,226.4 594.1,226.4 594.1,226.5 594,226.5 
		594,226.4 594,169.5 594,169.3 	"/>
	<polygon points="117.8,146.5 117.8,146.5 117.1,146.5 112.5,146.4 112.5,146.2 112.2,146.2 109,146.1 108.5,137.1 107.9,137.1 
		107.9,137.1 107.9,137.1 107.9,137.1 104.7,136.4 104.7,136.4 104.6,136.4 103,135.9 101.4,135.6 98.1,134.8 98.1,128.4 
		97.8,128.4 97.8,120.1 97.1,120.1 97.1,128.4 96.8,128.4 96.8,134.8 96.7,134.9 96.7,134.9 87.1,137.2 87.1,137.9 87.2,137.9 
		87,139.9 86.3,139.9 86.3,139.9 85.5,139.9 85.5,139.9 83.6,139.9 83.5,139.9 81,139.9 80.7,141.9 80.7,141.9 80.7,141.9 
		80.7,142.2 80.4,144.3 80.3,144.3 80.3,144.5 80.1,146.1 78.4,146.1 77.6,146.1 75.7,146.1 75.1,146.1 73.9,146.1 73.9,147.4 
		73.9,148.1 73.9,148.1 73.9,150.1 73.9,150.5 73.9,150.6 73.9,152.7 73.9,153.3 73.9,155.4 73.9,155.8 73.9,155.9 73.9,157.9 
		73.9,158.5 73.9,160.6 73.9,161 73.9,161.1 73.9,163.3 73.9,163.8 73.9,165.9 73.9,166.4 73.9,166.5 73.9,168.5 73.9,169 
		73.9,171.1 73.9,171.6 73.9,171.7 73.9,173.8 73.9,174.3 73.9,176.4 73.9,176.9 73.9,177 73.9,179 73.9,179.5 73.9,181.7 
		73.9,182.1 73.9,182.2 73.9,184.3 73.9,184.9 73.9,186.9 73.9,187.3 73.9,187.4 73.9,189.5 73.9,190.1 73.9,192.2 73.9,192.6 
		73.9,192.7 73.9,194.8 73.9,195.4 73.9,197.4 73.9,197.8 73.9,198 73.9,200.1 73.9,200.6 73.9,202.7 73.9,203.2 73.9,203.3 
		73.9,205.3 73.9,205.8 73.9,208 73.9,208.4 73.9,208.5 73.9,210.6 73.9,211.1 73.9,213.3 73.9,213.7 73.9,213.8 73.9,215.8 
		73.9,216.4 73.9,218.5 73.9,218.9 73.9,219 73.9,221.1 73.9,221.7 73.9,223.7 73.9,224.2 73.9,224.3 73.9,225.6 75.1,225.6 
		75.7,225.6 77.6,225.6 78.4,225.6 80.3,225.6 80.9,225.6 81.4,225.6 81.4,225.6 81.8,225.6 96.7,225.6 113.4,225.6 119.3,225.6 
		119.3,225.6 119.3,224.3 119.3,224.2 119.3,223.7 119.3,221.7 119.3,221.1 119.3,219 119.3,218.9 119.3,218.5 119.3,216.4 
		119.3,215.8 119.3,213.8 119.3,213.7 119.3,213.3 119.3,211.1 119.3,210.6 119.3,208.5 119.3,208.4 119.3,208 119.3,205.8 
		119.3,205.3 119.3,203.3 119.3,203.2 119.3,202.7 119.3,200.6 119.3,200.1 119.3,198 119.3,197.8 119.3,197.4 119.3,195.4 
		119.3,194.8 119.3,192.7 119.3,192.6 119.3,192.2 119.3,190.1 119.3,189.5 119.3,187.4 119.3,187.3 119.3,186.9 119.3,184.9 
		119.3,184.3 119.3,182.2 119.3,182.1 119.3,181.7 119.3,179.5 119.3,179 119.3,177 119.3,176.9 119.3,176.4 119.3,174.3 
		119.3,173.8 119.3,171.7 119.3,171.6 119.3,171.1 119.3,169 119.3,168.5 119.3,166.5 119.3,166.4 119.3,165.9 119.3,163.8 
		119.3,163.3 119.3,161.1 119.3,161 119.3,160.6 119.3,158.5 119.3,157.9 119.3,155.9 119.3,155.8 119.3,155.4 119.3,153.3 
		119.3,152.7 119.3,150.6 119.3,150.5 119.3,150.1 119.3,148.1 119.3,148.1 119.3,147.4 119.3,146.6 	"/>
	<path d="M84,224c-2.7-0.9-5.5-1.3-8.4-1.9c-2.9-0.6-6-1.1-7.8-1.2c-1.8-0.1-4.3-0.4-7-1.2c-2.8-0.7-4.7-0.5-5-0.5
		c-0.1,0-0.5,0-1.1-0.1v-0.6h0.1V218h-0.1l0,0h-1l-0.1-0.7h0.1v-0.3h-0.1V213v-0.3l0,0l0.1-0.4H54V212h0.1v-0.5h-0.4V211h-0.2v-0.2
		H53l-0.1-2.4h-0.1l-0.2-0.7l0,0l-0.4-17.3l0,0v-0.5l0,0l-1.1-2.3l-1,2.3l0,0v0.5l0,0l-0.3,17.4h-0.1l-0.2,0.7h-0.1l-0.1,2.4h-0.3
		v0.2h-0.2v0.4h-0.4v0.5h0.1v0.2h0.1l0.1,0.4h0.1v0.2v0.1v3.9h-0.1v0.3h0.1l-0.1,0.7h-0.9l0,0h-0.1c-0.1,0-1.9,0.7-3.7,1.3
		c-1.8,0.4-1.6,0.4-2.1,0.5s-4.3,1.4-6.6,2.3c-2.4,1-2.4,0.9-5.2,1.9c-2.9,1.1-4.7,1.8-4.7,1.8h72.1C97.2,225.8,86.7,224.9,84,224z"
		/>
	<polygon points="156.7,167.3 156.7,167.3 152.4,167.3 152.3,167.1 152.3,166.9 148.9,166.9 148.9,165.9 146.9,165.9 146.9,165 
		142,165 142,166.9 138.1,166.9 138.1,167.3 138.1,167.3 133.7,167.3 133.7,167.3 133.4,167.3 133.4,225.6 133.7,225.6 138.1,225.6 
		152.3,225.6 156.7,225.6 157.1,225.6 157.1,172.9 157.1,167.3 	"/>
	<path d="M86.9,213.1v-0.6v-0.3v-0.7h-2.3v-0.2V210v-0.2v-1.1v-0.2v-1.2v-0.2v-1.2v-0.2v-1.2v-0.2v-1.2V203v-1.2v-0.2v-1.2v-0.2V199
		v-0.2v-1.2v-0.2v-1.2V196v-1h0.9v-0.7h-0.9v-2.2l0,0V191l0,0v-1.6l0,0v-7.9v-0.3h0.2l0,0H85V181h0.1v-0.2h-0.3l0,0v-0.3h0.3v-0.6
		h-0.4c-0.1-1.8-0.9-3.4-2.1-4.3l0,0l-0.1-0.1l0,0l-0.2-0.1h0.2V175h-0.7v-0.3h-0.3v-0.3h-0.5v-0.5h0.1v-0.2h-0.1v-1.9h0.1v-0.2
		h-0.1v-0.1l0,0v-2.7c0.1,0,0.2-0.1,0.2-0.3c0-0.2-0.1-0.3-0.3-0.3c-0.2,0-0.3,0.1-0.3,0.3c0,0.1,0.1,0.2,0.2,0.3v2.7h-0.1v0.1h-0.1
		v0.2h0.1v1.9h-0.1v0.2h0.1v0.5H80v0.3h-0.2v0.3H79v0.4h0.2l-0.2,0.1c0,0,0,0-0.1,0l-0.1,0.1l0,0c-1.3,0.9-2,2.4-2.1,4.3h-0.4v0.6
		h0.4v0.3l0,0l0,0H76v0.2h0.2v0.2h0.4l0,0h0.1v0.3v7.9l0,0v1l0,0v1.7v2.2h-0.9v0.7h0.9v1.2l0,0v1.2v0.2v1.2v0.2v1.2v0.2v1.2v0.2v1.2
		v0.2v1.2v0.2v1.2v0.2v1.2v0.2v1.2v0.2v1.2v0.2v1.2v0.2h-2.1v0.7v0.3v0.6h-1.3H72l0,0v1.6l0,0v0.2v8.2v1.7v2.3l0,0h1.4h1.4h0.6h2H79
		h3.3h2.1h2h0.4l0,0h1.4h1.4l0,0v-2.3v-1.7V215v-0.2l0,0v-1.6l0,0h-2.8V213.1z"/>
	<polygon points="135.1,156.5 135.1,157 130.9,157 130.9,155.1 118,155.1 118,157 113.4,157 113.4,156.5 112.2,156.5 112.2,157 
		112.2,225.9 113,225.9 113.4,225.9 113.9,225.9 114.3,225.9 115,225.9 115.4,225.9 115.9,225.9 116.9,225.9 117,225.9 117.4,225.9 
		117.5,225.9 117.5,225.9 118,225.9 118.4,225.9 119,225.9 119.6,225.9 120,225.9 120.9,225.9 121.1,225.9 121.6,225.9 121.6,225.9 
		121.6,225.9 122,225.9 122.4,225.9 123.1,225.9 123.6,225.9 124,225.9 125.1,225.9 125.6,225.9 126.1,225.9 127,225.9 127.1,225.9 
		127.6,225.9 127.6,225.9 127.6,225.9 128.1,225.9 128.6,225.9 129.1,225.9 129.7,225.9 130.1,225.9 130.8,225.9 131.1,225.9 
		131.2,225.9 131.7,225.9 131.7,225.9 131.7,225.9 132.2,225.9 132.6,225.9 133.2,225.9 133.7,225.9 134.2,225.9 135.1,225.9 
		135.2,225.9 135.7,225.9 136.3,225.9 136.3,157 136.3,156.5 	"/>
	<path d="M206.8,193.5v1.6h-0.3l0,0h-0.7l0,0h-0.3l0,0h-0.7l0,0h-0.3l0,0h-0.7l0,0h-0.4l0,0h-0.7l0,0h-0.1v-63.8h-1.3v1.2h-0.7H200
		h-1.2h-0.3h-1.2H197h-1.2h-0.3h-1.2H194h-0.4v-10.3l0,0v-1.3h-25.4v0.9v0.4v69.7h1.1h0.2h1.7l0,0v0.7v2h-8.7v0.3v0.2v0.9v23.4v0.3
		v1.1l0,0h1.3l0,0h7.4v0.1h-8.7v1.1h8.7v1.5v3.6h1.9h17h2.4h2.1h6.7h3.6h2.1v-3.6l0,0v3.6h1.3v-33.5H206.8z M192,122.1v2.7h-0.2l0,0
		h-0.5l0,0h-1.7l0,0H189l0,0h-1.7l0,0h-0.5l0,0h-1.7l0,0h-0.5l0,0h-1.7l0,0h-0.5l0,0h-1.5l0,0h-0.5l0,0h-1.6l0,0h-0.5l0,0h-1.7l0,0
		h-0.5l0,0h-1.7l0,0h-0.5l0,0H172l0,0h-0.5l0,0h-1.7l0,0h-0.5l0,0h-0.1v-2.7H192z M206.8,221.9L206.8,221.9v-1.1l0,0V221.9z"/>
	<path d="M259.3,209.4V206l0,0v-2.9l0,0V201l0,0v-3l0,0v-2.1l0,0v-2.9l0,0v-2.1l0,0v-2.9l0,0v-2.1l0,0v-2.9l0,0v-2.1l0,0v-2.9l0,0
		v-2.1l0,0v-2.9l0,0v-2.1l0,0v-2.9l0,0v-2.1l0,0v-3l0,0v-2.1l0,0v-2.9l0,0v-2.1l0,0v-2.9l0,0v-2.1l0,0v-2.9l0,0v-2.1l0,0v-2.9l0,0
		v-2.1l0,0v-2.9l0,0v-2.1l0,0v-2.9l0,0v-2.1l0,0v-2.9l0,0v-2.1l0,0v-2.9l0,0v-2.1l0,0v-2.9l0,0v-2.1l0,0v-2.9l0,0v-2.9l0,0v-0.7h0.3
		v-1.1h-5.7h-0.4V97.5h-1v-0.6v-1.2h-0.3v-3.9h-0.2v3.9h-0.3v1.2h-0.7h-2.4h-1.5h-3.1h-1.5h-2.1h-1.5h-2.1h-1.5h-2.4h-1.5v0.7
		l-2.7-0.7v2.3l2.7,0.7v3.7h-2.7v4.5h-7.2v1.1h0.5v0.7v99.5h-9.3v1.3h1.1v1.3v15h3.4h5.7h5.6h5.7h5.9h5.7h6.7h5.7h6.9h5.7h4.8v-0.1
		V212v-1.3h1.1v-1.3L259.3,209.4L259.3,209.4z M243.9,103.6L243.9,103.6L243.9,103.6L243.9,103.6z M242.4,103.6h-2.1v-1.1l2.1,0.6
		V103.6z M238.7,103.6h-1.2h-1v-2.1l2.1,0.6V103.6z M251,98.4v4.9l-2.4-0.7v-4.1H251z M247,98.4v3.7l-3.1-0.9v-2.9H247z M242.4,98.4
		v2.4l-2.1-0.6v-1.8C240.3,98.4,242.4,98.4,242.4,98.4z M238.7,98.4v1.3l-2.1-0.6v-0.7h2.1V98.4z M235,98.6l-0.9-0.2h0.9V98.6z
		 M232.5,100.3l2.4,0.7v2.7h-2.4V100.3z"/>
	<polygon points="298.4,181.1 298.4,181.1 298.4,181 298.3,180.9 297.9,180.3 297.9,165.9 297.9,165.8 297.9,165.7 297.9,165 
		297.9,164.8 288.7,164.8 288.7,163.9 288.4,163.9 288.4,159.9 288.1,159.9 288.1,163.9 287.7,163.9 287.7,164.8 277.1,164.8 
		277.1,163.9 276.7,163.9 276.7,159.9 276.4,159.9 276.4,163.9 276.1,163.9 276.1,164.8 266.9,164.8 266.9,165 266.9,165.7 
		266.9,165.8 266.9,165.9 266.9,181 266.9,181 266.9,181 266.9,182.3 266.9,182.3 266.9,182.3 266.9,224 266.9,224.7 266.9,225.7 
		277.1,225.7 277.2,225.8 277.3,225.7 287.2,225.7 287.6,226.1 288,225.7 297.9,225.7 297.9,224.7 297.9,224 297.9,183.1 
		298.3,182.6 298.4,182.4 298.4,182.4 298.4,182.3 298.3,182.2 298,181.7 298.3,181.4 	"/>
	<path d="M396.9,106.5h-9.5v-2.8h-2.3c-0.1-4.4-3.5-7.9-7.7-7.9c-1.8,0-3.4,0.6-4.7,1.7l0,0l0,0c-1.1,0.9-1.9,2-2.4,3.4l0,0v0.1
		c-0.3,0.9-0.4,1.7-0.5,2.7h-2.9v2.8h-9.4v1h0.2v118.5h19.5h19.5V107.4h0.2V106.5z"/>
	<path d="M564.2,187.1v0.3h-3.7v-1.1h-11.8v1.1h-3.7v-0.3h-1.1v39.8h0.6h0.4h0.4h0.3h0.5h0.4h0.4h0.9h0.1h0.4h0.1l0,0h0.4h0.4h0.5
		h0.4h0.4h0.9h0.1h0.4h0.1l0,0h0.4h0.4h0.5h0.4h0.4h1h0.4h0.4h0.9h0.1h0.4h0.1l0,0h0.4h0.4h0.5h0.4h0.4h0.9h0.1h0.4h0.1l0,0h0.4h0.4
		h0.5h0.4h0.4h0.9h0.1h0.4h0.5v-39.8L564.2,187.1L564.2,187.1z M564.2,187.6L564.2,187.6h-0.9h-0.4h-0.4h-0.5h-0.4h-0.4l0,0H564.2z
		 M557,187.6L557,187.6h-0.9h-0.4h-0.4h-1H554h-0.4H553h-0.4h-0.4l0,0H557z M560.7,187.6h-0.9h-0.4H559h-0.5H558h-0.4l0,0H560.7
		L560.7,187.6z M551.6,187.6L551.6,187.6h-0.9h-0.4h-0.4h-0.5H549h-0.4l0,0H551.6z M544.9,187.6h3.1l0,0h-0.9h-0.4h-0.4h-0.5h-0.3
		H544.9L544.9,187.6z"/>
	<path d="M149.8,225.8c-0.3-6.1-5.3-11-11.5-11c-6.2,0-11.2,4.9-11.5,11H149.8z"/>
	<path d="M76.8,225.7c-0.3-6.1-5.3-11-11.5-11s-11.2,4.9-11.5,11H76.8z"/>
	<path d="M27.5,225.9c-0.3-6.1-5.3-11-11.5-11s-11.2,4.9-11.5,11H27.5z"/>
	<path d="M37.5,225.8c-0.2-3.7-3.2-6.6-6.9-6.6s-6.8,3-6.9,6.6H37.5z"/>
	<path d="M-2.7,225.8c-0.2-3.7-3.2-6.6-6.9-6.6s-6.8,3-6.9,6.6H-2.7z"/>
	<path d="M-10.2,223c-0.9,0-1.6,0.3-2.1,0.9c-0.5-0.5-1.3-0.9-2.1-0.9c-0.9,0-1.5,0.3-2.1,0.9c-0.5-0.5-1.3-0.9-2.1-0.9
		c-1.6,0-3,1.3-3.1,2.9h4.1h1.9h2.3h1.8h4.3C-7.3,224.2-8.5,223-10.2,223z"/>
	<path d="M13.5,204.8c0.4,0.2-1.7-4.5-6.2-1.6c-0.7,0.5,1.6-2.9,1.6-2.9s-3.2,0.4-3.3,3.2c0,0.4-1.7-4.3-6-0.3
		c-0.1,0.1,4.5,1.1,4.4,1.3c-0.1,0.2-5.4-1-5.5,3.7c0,0.1,4.4-1.7,5.6-1.7c0.1,0-4,2.2-1.8,6.9c0.1,0.2,2.7-1.9,3.1-4.8l-0.3,18.1
		l2.2-0.1c-0.5-6.9-1-15.6-1.2-19.7c0.9,1.2,2.8,3.2,6.1,3.7c0,0-0.5-4.7-4.6-5.3C7.4,205.2,11.7,204.1,13.5,204.8z"/>
	<path d="M47.9,212.4c0.5,0.2-1.9-5.3-7.3-2.2c-1,0.5,2-3.4,2-3.4s-3.7,0.3-4,3.6c0,0.5-1.9-5.1-7.1-0.6c-0.1,0.1,5.2,1.4,5.1,1.6
		c-0.1,0.2-6.4-1.3-6.8,4.3c0,0.1,5.2-1.9,6.8-1.8c0.1,0-4.9,2.4-2.4,8.2c0.1,0.3,3.4-2.2,3.9-5.9c0-0.1,0-0.2,0-0.3l0.3,11l2-0.4
		c-0.2-4.4-0.7-8.7-1.1-11.5c1.1,1.5,3.2,3.6,6.9,4.4c0,0-0.4-5.5-5.2-6.5C40.6,212.7,45.8,211.6,47.9,212.4z"/>
	<path d="M14,222.2c-1.1,0-1.9,0.4-2.7,1.1c-0.6-0.6-1.6-1.1-2.7-1.1c-1,0-1.9,0.4-2.6,1.1c-0.6-0.6-1.6-1.1-2.6-1.1
		c-2,0-3.6,1.6-3.7,3.6h5.2h2.3h2.9h2.3h5.2C17.6,223.8,16,222.2,14,222.2z"/>
	<path d="M76.4,222c-1.1,0-1.9,0.4-2.7,1.1c-0.6-0.6-1.6-1.1-2.7-1.1c-1,0-1.9,0.4-2.6,1.1c-0.6-0.6-1.6-1.1-2.6-1.1
		c-2,0-3.6,1.6-3.7,3.6h5.2h2.3h2.9H75h5.2C80.1,223.6,78.4,222,76.4,222z"/>
	<path d="M108.3,225.8c-0.2-3.7-3.2-6.6-6.9-6.6s-6.8,3-6.9,6.6H108.3z"/>
	<path d="M120.5,222.2c-1.1,0-1.9,0.4-2.7,1.1c-0.6-0.6-1.6-1.1-2.7-1.1c-1,0-1.9,0.4-2.6,1.1c-0.6-0.6-1.6-1.1-2.6-1.1
		c-2,0-3.6,1.6-3.7,3.6h5.2h2.3h2.9h2.3h5.2C124.2,223.8,122.5,222.2,120.5,222.2z"/>
	<path d="M155.3,222.2c-1.1,0-1.9,0.4-2.7,1.1c-0.6-0.6-1.6-1.1-2.7-1.1c-1,0-1.9,0.4-2.6,1.1c-0.6-0.6-1.6-1.1-2.6-1.1
		c-2,0-3.6,1.6-3.7,3.6h5.2h2.3h2.9h2.3h5.2C158.9,223.8,157.3,222.2,155.3,222.2z"/>
	<path d="M129.9,218.1c-0.5,0.1,1.5-1.2,1.5-1.2s-1.7-0.4-2.3,1c-0.1,0.2,0-2.6-3-1.4c-0.1,0,2,1.5,2,1.5c-0.1,0.1-2.6-1.6-3.6,0.7
		c0,0,2.6,0,3.3,0.3c0,0-2.6,0.2-2.3,3.2c0,0.1,1.8-0.4,2.7-1.9c0.2-0.4,0.4-0.7,0.5-1v6.2h1.1c-0.3-1.7-0.5-3.7-0.6-5.1
		c0.3,0.7,1,1.7,2.1,2.4c0,0,0.6-2.4-1.3-3.6c-0.1-0.1,2.3,0.3,3.1,1C133,220.3,132.8,217.5,129.9,218.1z"/>
	<path d="M177.3,225c-0.2-4.5-3.9-8-8.4-8s-8.2,3.5-8.4,8H177.3z"/>
	<path d="M181.5,221.5c-1.1,0-1.9,0.4-2.7,1.1c-0.6-0.6-1.6-1.1-2.7-1.1c-1,0-1.9,0.4-2.6,1.1c-0.6-0.6-1.6-1.1-2.6-1.1
		c-2,0-3.6,1.6-3.7,3.6h5.2h2.3h2.9h2.3h5.2C185.2,223.1,183.5,221.5,181.5,221.5z"/>
	<path d="M248.9,221.5c-1.1,0-1.9,0.4-2.7,1.1c-0.6-0.6-1.6-1.1-2.7-1.1c-1,0-1.9,0.4-2.6,1.1c-0.6-0.6-1.6-1.1-2.6-1.1
		c-2,0-3.6,1.6-3.7,3.6h5.2h2.3h2.9h2.3h5.2C252.5,223.1,251,221.5,248.9,221.5z"/>
	<path d="M223.6,225c-0.2-3.7-3.2-6.6-6.9-6.6s-6.8,3-6.9,6.6H223.6z"/>
	<path d="M192.5,214.7c0.9,0,3.4,1.1,3.4,1.1c-0.1-2.8-3.3-2.1-3.3-2.2c0-0.1,2.7-0.7,2.7-0.7c-2.6-2.3-3.6,0.4-3.6,0.2
		c-0.1-1.6-2-1.9-2-1.9s1.5,2,1,1.7c-2.7-1.7-4,1.1-3.7,1c1.1-0.4,3.6,0.2,3.5,0.2c-2.4,0.4-2.8,3.2-2.8,3.2c2-0.3,3.2-1.6,3.7-2.2
		c-0.1,2.4-0.3,7.7-0.6,11.9l1.3,0.1l-0.2-10.9c0.3,1.7,1.8,3,1.9,2.9C195.1,216,192.5,214.8,192.5,214.7z"/>
	<path d="M206.6,214.8c0.2,0.1-1-2.4-3.4-0.9c-0.4,0.3,0.9-1.6,0.9-1.6s-1.7,0.2-1.8,1.7c0,0.2-1-2.3-3.3-0.2c0,0,2.4,0.6,2.3,0.6
		c0,0.1-3-0.5-3,2c0,0,2.3-1,3.1-1c0.1,0-2.2,1.2-1,3.8c0.1,0.1,1.3-0.9,1.6-2.3l-0.2,9.6h1.2c-0.3-3.8-0.5-8.6-0.6-10.9
		c0.4,0.6,1.5,1.8,3.4,2.1c0,0-0.3-2.6-2.4-2.9C203.3,215.1,205.6,214.4,206.6,214.8z"/>
	<path d="M199.7,219c-0.5,0.1,1.5-1.2,1.5-1.2s-1.7-0.4-2.3,1c-0.1,0.2,0-2.6-3-1.4c-0.1,0,2,1.5,2,1.5c-0.1,0.1-2.6-1.6-3.6,0.7
		c0,0,2.6,0,3.3,0.3c0,0-2.6,0.2-2.3,3.2c0,0.1,1.8-0.4,2.7-1.9c0.2-0.4,0.4-0.7,0.5-1v6.2h1.1c-0.3-1.7-0.5-3.7-0.6-5.1
		c0.3,0.7,1,1.7,2.1,2.4c0,0,0.6-2.4-1.3-3.6c-0.1-0.1,2.3,0.3,3.1,1C202.7,221.4,202.5,218.5,199.7,219z"/>
	<path d="M546.5,225.2c-0.2-4.3-3.7-7.7-8.1-7.7s-7.9,3.4-8.1,7.7H546.5z"/>
	<path d="M566.4,225.2c-0.2-4.3-3.7-7.7-8.1-7.7s-7.9,3.4-8.1,7.7H566.4z"/>
	<path d="M503.4,225.2c-0.2-4.3-3.7-7.7-8.1-7.7c-4.4,0-7.9,3.4-8.1,7.7H503.4z"/>
	<path d="M591.9,225.2c-0.2-3.7-3.2-6.6-6.9-6.6c-3.7,0-6.8,3-6.9,6.6H591.9z"/>
	<path d="M607,221.6c-1.1,0-1.9,0.4-2.7,1.1c-0.6-0.6-1.6-1.1-2.7-1.1c-1,0-1.9,0.4-2.6,1.1c-0.6-0.6-1.6-1.1-2.6-1.1
		c-2,0-3.6,1.6-3.7,3.6h5.2h2.3h2.9h2.3h5.2C610.7,223.2,609.1,221.6,607,221.6z"/>
	<path d="M506.3,221.6c-1.1,0-1.9,0.4-2.7,1.1c-0.6-0.6-1.6-1.1-2.7-1.1c-1,0-1.9,0.4-2.6,1.1c-0.6-0.6-1.6-1.1-2.6-1.1
		c-2,0-3.6,1.6-3.7,3.6h5.2h2.3h2.9h2.3h5.2C509.9,223.2,508.3,221.6,506.3,221.6z"/>
	<path d="M594.1,213.3c0.9-0.2,3.8,0.3,3.8,0.3c-0.7-3-3.9-1.5-4-1.6c-0.1-0.1,2.7-1.4,2.6-1.4c-3.2-1.9-3.7,1.3-3.7,1.1
		c-0.5-1.7-2.6-1.5-2.6-1.5s2,1.8,1.4,1.6c-3.2-1.2-3.9,2-3.7,1.9c1.1-0.6,3.9-0.6,3.7-0.5c-2.4,1-2.1,4-2.1,4c2-0.9,3-2.3,3.4-3.2
		c0.4,2.6,1.3,7.9,1.9,12.1l1.4-0.2l-2.6-10.9c0.7,1.8,2.6,2.8,2.7,2.7C597,214.1,594.1,213.4,594.1,213.3z"/>
	<path d="M598.5,216.4c0,0-0.6,4.7-1,9.4l1.3,0.3l0.1-9.4L598.5,216.4z"/>
	<path d="M593.9,221c0,0,0.3-3.6,3.4-4.3c0.2,0-3.2-0.7-4.6-0.2c-0.3,0.1,1.3-3.5,4.8-1.4c0.6,0.3-1.3-2.2-1.3-2.2s2.4,0.2,2.7,2.3
		c0,0.3,1.3-3.3,4.7-0.4c0.1,0-3.4,1-3.3,1.1c0.1,0.1,4.1-0.9,4.4,2.8c0,0-3.4-1.3-4.5-1.2c-0.1,0,3.2,1.6,1.6,5.3
		c-0.1,0.2-2.2-1.5-2.6-3.8c-0.2-1.1-0.2-1.8-0.2-1.8S597.6,220.3,593.9,221z"/>
	<path d="M609.6,210.7c0,0-0.5,8.3-1.2,14.5l1.4,0.1l0.1-14.5L609.6,210.7z"/>
	<path d="M605.6,214.1c0,0,0.3-3.1,3-3.4c0.2,0-2.7-0.7-3.8-0.3c-0.3,0.1,1.2-2.9,4-1.1c0.5,0.3-1.1-1.9-1.1-1.9s2,0.2,2.1,2
		c0,0.3,1.2-2.8,3.9-0.2c0.1,0-2.9,0.6-2.9,0.9c0,0.1,3.5-0.6,3.6,2.4c0,0.1-2.8-1.1-3.7-1.1c-0.1,0,2.7,1.4,1.2,4.6
		c-0.1,0.1-1.8-1.3-2-3.3c-0.1-1-0.1-1.6-0.1-1.6S608.7,213.6,605.6,214.1z"/>
	<path d="M438.5,225c-0.2-3.7-3.2-6.6-6.9-6.6s-6.8,3-6.9,6.6H438.5z"/>
	<path d="M338.6,225.3c-0.2-3.7-3.2-6.6-6.9-6.6s-6.8,3-6.9,6.6H338.6z"/>
	<path d="M292.8,225.3c-0.2-3.7-3.2-6.6-6.9-6.6c-3.7,0-6.8,3-6.9,6.6H292.8z"/>
	<path d="M278,225.1c-0.1-2.9-2.6-5.1-5.4-5.1c-2.9,0-5.2,2.2-5.4,5.1H278z"/>
	<path d="M348,212.2c0.5,0.2-1.9-5.3-7.2-2.1c-1,0.5,2-3.3,2-3.3s-3.7,0.3-4,3.6c-0.1,0.5-1.9-5-7-0.5c-0.1,0.1,5.2,1.4,5.1,1.6
		c-0.1,0.2-6.3-1.3-6.7,4.1c0,0.1,5.1-1.9,6.7-1.8c0.1,0-4.9,2.4-2.4,8.1c0.1,0.3,3.3-2.2,3.9-5.7c0-0.1,0-0.2,0-0.3l0.1,10.6l2-0.4
		c-0.2-4.3-0.7-8.6-1.1-11.4c1.1,1.4,3.2,3.6,6.8,4.4c0,0-0.4-5.5-5.1-6.4C340.7,212.4,346,211.4,348,212.2z"/>
	<path d="M324.6,221.8c-1.1,0-1.9,0.4-2.7,1.1c-0.6-0.6-1.6-1.1-2.7-1.1c-1,0-1.9,0.4-2.6,1.1c-0.6-0.6-1.6-1.1-2.6-1.1
		c-2,0-3.6,1.6-3.7,3.6h5.2h2.3h2.9h2.3h5.2C328.2,223.4,326.6,221.8,324.6,221.8z"/>
	<path d="M301.5,221.8c-1.1,0-1.9,0.4-2.7,1.1c-0.6-0.6-1.6-1.1-2.7-1.1c-1,0-1.9,0.4-2.6,1.1c-0.6-0.6-1.6-1.1-2.6-1.1
		c-2,0-3.6,1.6-3.7,3.6h5.2h2.3h2.9h2.3h5.2C305.1,223.4,303.5,221.8,301.5,221.8z"/>
	<path d="M291.1,218.1c1.1-0.2,4.7,0.7,4.7,0.7c-0.6-3.6-4.7-2.2-4.8-2.3c-0.1-0.1,3.4-1.4,3.3-1.5c-3.8-2.7-4.6,1.3-4.7,1
		c-0.4-2.1-3-2.1-3-2.1s2.2,2.4,1.6,2.1c-3.8-1.7-5,2.1-4.7,2c1.3-0.7,4.8-0.3,4.6-0.3c-3.1,1-3,4.7-3,4.7c2.4-0.7,3.7-2.4,4.4-3.5
		c-0.2,1.9-0.4,4.5-0.7,6.7h1.3v-6.7c0.1,0.3,0.1,0.5,0.2,1c0.6,2.3,3,3.8,3.1,3.6C294.6,219.3,291,218.1,291.1,218.1z"/>
	<path d="M577.9,221.6c-1.1,0-1.9,0.4-2.7,1.1c-0.6-0.6-1.6-1.1-2.7-1.1c-1,0-1.9,0.4-2.6,1.1c-0.6-0.6-1.6-1.1-2.6-1.1
		c-2,0-3.6,1.6-3.7,3.6h5.2h2.3h2.9h2.3h5.2C581.5,223.2,579.9,221.6,577.9,221.6z"/>
	<path d="M360.6,225c-0.1-3.3-2.9-5.9-6.2-5.9c-3.3,0-6,2.6-6.2,5.9H360.6z"/>
	<path d="M399.2,225c-0.1-3.3-2.9-5.9-6.2-5.9c-3.3,0-6,2.6-6.2,5.9H399.2z"/>
	<path d="M410.5,221.4c-1.1,0-1.9,0.4-2.7,1.1c-0.6-0.6-1.6-1.1-2.7-1.1c-1,0-1.9,0.4-2.6,1.1c-0.6-0.6-1.6-1.1-2.6-1.1
		c-2,0-3.6,1.6-3.7,3.6h5.2h2.3h2.9h2.3h5.2C414.2,223,412.6,221.4,410.5,221.4z"/>
	<path d="M370.9,221.4c-1.1,0-1.9,0.4-2.7,1.1c-0.6-0.6-1.6-1.1-2.7-1.1c-1,0-1.9,0.4-2.6,1.1c-0.6-0.6-1.6-1.1-2.6-1.1
		c-2,0-3.6,1.6-3.7,3.6h5.2h2.3h2.9h2.3h5.2C374.5,223,372.9,221.4,370.9,221.4z"/>
	<rect x="-39.7" y="225.1" width="679.4" height="5.3"/>
</g>
</svg>
